<mxfile host="app.diagrams.net" agent="Mozilla/5.0 (Windows NT 10.0; Win64; x64; rv:136.0) Gecko/20100101 Firefox/136.0" version="26.0.16">
  <diagram name="Page-1" id="Hi8thBa9BpcaoAM9ut1s">
    <mxGraphModel dx="441" dy="-589" grid="0" gridSize="14" guides="1" tooltips="1" connect="0" arrows="0" fold="1" page="1" pageScale="1" pageWidth="1169" pageHeight="827" math="0" shadow="0">
      <root>
        <mxCell id="0" />
        <mxCell id="GzNEmD3VfXziyHX95NtM-45" value="Base" parent="0" />
        <mxCell id="GzNEmD3VfXziyHX95NtM-46" value="" style="verticalLabelPosition=bottom;verticalAlign=top;html=1;shape=mxgraph.basic.rect;fillColor2=none;strokeWidth=1;size=20;indent=5;editable=0;movable=1;resizable=0;rotatable=1;deletable=0;locked=0;connectable=1;fillColor=#f5f5f5;fontColor=#333333;strokeColor=#666666;" parent="GzNEmD3VfXziyHX95NtM-45" vertex="1">
          <mxGeometry x="1800" y="2327" width="1100" height="450" as="geometry" />
        </mxCell>
        <mxCell id="GzNEmD3VfXziyHX95NtM-47" value="" style="verticalLabelPosition=bottom;verticalAlign=top;html=1;shape=mxgraph.basic.rect;fillColor2=none;strokeWidth=1;size=20;indent=5;editable=0;movable=1;resizable=0;rotatable=1;deletable=0;locked=0;connectable=1;fillColor=#f5f5f5;fontColor=#333333;strokeColor=#666666;" parent="GzNEmD3VfXziyHX95NtM-45" vertex="1">
          <mxGeometry x="1550" y="1827" width="1350" height="500" as="geometry" />
        </mxCell>
        <mxCell id="GzNEmD3VfXziyHX95NtM-48" value="" style="verticalLabelPosition=bottom;verticalAlign=top;html=1;shape=mxgraph.basic.rect;fillColor2=none;strokeWidth=1;size=20;indent=5;editable=0;movable=1;resizable=0;rotatable=1;deletable=0;locked=0;connectable=1;fillColor=#f5f5f5;fontColor=#333333;strokeColor=#666666;" parent="GzNEmD3VfXziyHX95NtM-45" vertex="1">
          <mxGeometry x="2900" y="2077" width="450" height="300" as="geometry" />
        </mxCell>
        <mxCell id="GzNEmD3VfXziyHX95NtM-49" value="" style="verticalLabelPosition=bottom;verticalAlign=top;html=1;shape=mxgraph.basic.rect;fillColor2=none;strokeWidth=1;size=20;indent=5;editable=0;movable=1;resizable=0;rotatable=1;deletable=0;locked=0;connectable=1;fillColor=#f5f5f5;fontColor=#333333;strokeColor=#666666;" parent="GzNEmD3VfXziyHX95NtM-45" vertex="1">
          <mxGeometry x="3650" y="1827" width="450" height="450" as="geometry" />
        </mxCell>
        <mxCell id="GzNEmD3VfXziyHX95NtM-50" value="" style="verticalLabelPosition=bottom;verticalAlign=top;html=1;shape=mxgraph.basic.rect;fillColor2=none;strokeWidth=1;size=20;indent=5;editable=0;movable=1;resizable=0;rotatable=1;deletable=0;locked=0;connectable=1;fillColor=#f5f5f5;fontColor=#333333;strokeColor=#666666;" parent="GzNEmD3VfXziyHX95NtM-45" vertex="1">
          <mxGeometry x="4100" y="1827" width="50" height="150" as="geometry" />
        </mxCell>
        <mxCell id="GzNEmD3VfXziyHX95NtM-51" value="" style="verticalLabelPosition=bottom;verticalAlign=top;html=1;shape=mxgraph.basic.rect;fillColor2=none;strokeWidth=1;size=20;indent=5;editable=0;movable=1;resizable=0;rotatable=1;deletable=0;locked=0;connectable=1;fillColor=#f5f5f5;fontColor=#333333;strokeColor=#666666;" parent="GzNEmD3VfXziyHX95NtM-45" vertex="1">
          <mxGeometry x="4150" y="1727" width="100" height="250" as="geometry" />
        </mxCell>
        <mxCell id="GzNEmD3VfXziyHX95NtM-52" value="" style="verticalLabelPosition=bottom;verticalAlign=top;html=1;shape=mxgraph.basic.rect;fillColor2=none;strokeWidth=1;size=20;indent=5;editable=0;movable=1;resizable=0;rotatable=1;deletable=0;locked=0;connectable=1;fillColor=#f5f5f5;fontColor=#333333;strokeColor=#666666;" parent="GzNEmD3VfXziyHX95NtM-45" vertex="1">
          <mxGeometry x="3150" y="977" width="450" height="250" as="geometry" />
        </mxCell>
        <mxCell id="GzNEmD3VfXziyHX95NtM-53" value="" style="verticalLabelPosition=bottom;verticalAlign=top;html=1;shape=mxgraph.basic.rect;fillColor2=none;strokeWidth=1;size=20;indent=5;editable=0;movable=1;resizable=0;rotatable=1;deletable=0;locked=0;connectable=1;fillColor=#f5f5f5;fontColor=#333333;strokeColor=#666666;" parent="GzNEmD3VfXziyHX95NtM-45" vertex="1">
          <mxGeometry x="3600" y="977" width="50" height="50" as="geometry" />
        </mxCell>
        <mxCell id="GzNEmD3VfXziyHX95NtM-54" value="" style="verticalLabelPosition=bottom;verticalAlign=top;html=1;shape=mxgraph.basic.rect;fillColor2=none;strokeWidth=1;size=20;indent=5;editable=0;movable=1;resizable=0;rotatable=1;deletable=0;locked=0;connectable=1;fillColor=#f5f5f5;fontColor=#333333;strokeColor=#666666;" parent="GzNEmD3VfXziyHX95NtM-45" vertex="1">
          <mxGeometry x="2900" y="1077" width="250" height="150" as="geometry" />
        </mxCell>
        <mxCell id="GzNEmD3VfXziyHX95NtM-55" value="" style="verticalLabelPosition=bottom;verticalAlign=top;html=1;shape=mxgraph.basic.rect;fillColor2=none;strokeWidth=1;size=14.86;indent=5;editable=0;movable=1;resizable=0;rotatable=1;deletable=0;locked=0;connectable=1;fillColor=#f5f5f5;fontColor=#333333;strokeColor=#666666;" parent="GzNEmD3VfXziyHX95NtM-45" vertex="1">
          <mxGeometry x="1600" y="827" width="1550" height="250" as="geometry" />
        </mxCell>
        <mxCell id="GzNEmD3VfXziyHX95NtM-56" value="" style="verticalLabelPosition=bottom;verticalAlign=top;html=1;shape=mxgraph.basic.rect;fillColor2=none;strokeWidth=1;size=14.86;indent=5;editable=0;movable=1;resizable=0;rotatable=1;deletable=0;locked=0;connectable=1;fillColor=#f5f5f5;fontColor=#333333;strokeColor=#666666;" parent="GzNEmD3VfXziyHX95NtM-45" vertex="1">
          <mxGeometry x="750" y="1677" width="2200" height="150" as="geometry" />
        </mxCell>
        <mxCell id="GzNEmD3VfXziyHX95NtM-57" value="" style="verticalLabelPosition=bottom;verticalAlign=top;html=1;shape=mxgraph.basic.rect;fillColor2=none;strokeWidth=1;size=20;indent=5;editable=0;movable=1;resizable=0;rotatable=1;deletable=0;locked=0;connectable=1;fillColor=#f5f5f5;fontColor=#333333;strokeColor=#666666;" parent="GzNEmD3VfXziyHX95NtM-45" vertex="1">
          <mxGeometry x="2950" y="1727" width="1200" height="50" as="geometry" />
        </mxCell>
        <mxCell id="GzNEmD3VfXziyHX95NtM-58" value="" style="verticalLabelPosition=bottom;verticalAlign=top;html=1;shape=mxgraph.basic.rect;fillColor2=none;strokeWidth=1;size=20;indent=5;editable=0;movable=1;resizable=0;rotatable=1;deletable=0;locked=0;connectable=1;fillColor=#f5f5f5;fontColor=#333333;strokeColor=#666666;" parent="GzNEmD3VfXziyHX95NtM-45" vertex="1">
          <mxGeometry x="3950" y="1777" width="50" height="50" as="geometry" />
        </mxCell>
        <mxCell id="GzNEmD3VfXziyHX95NtM-59" value="" style="verticalLabelPosition=bottom;verticalAlign=top;html=1;shape=mxgraph.basic.rect;fillColor2=none;strokeWidth=1;size=20;indent=5;editable=0;movable=1;resizable=0;rotatable=1;deletable=0;locked=0;connectable=1;fillColor=#f5f5f5;fontColor=#333333;strokeColor=#666666;" parent="GzNEmD3VfXziyHX95NtM-45" vertex="1">
          <mxGeometry x="3700" y="1027" width="50" height="700" as="geometry" />
        </mxCell>
        <mxCell id="GzNEmD3VfXziyHX95NtM-60" value="" style="verticalLabelPosition=bottom;verticalAlign=top;html=1;shape=mxgraph.basic.rect;fillColor2=none;strokeWidth=1;size=20;indent=5;editable=0;movable=1;resizable=0;rotatable=1;deletable=0;locked=0;connectable=1;fillColor=#f5f5f5;fontColor=#333333;strokeColor=#666666;" parent="GzNEmD3VfXziyHX95NtM-45" vertex="1">
          <mxGeometry x="3600" y="1027" width="100" height="50" as="geometry" />
        </mxCell>
        <mxCell id="GzNEmD3VfXziyHX95NtM-61" value="" style="verticalLabelPosition=bottom;verticalAlign=top;html=1;shape=mxgraph.basic.rect;fillColor2=none;strokeWidth=1;size=20;indent=5;editable=0;movable=1;resizable=0;rotatable=1;deletable=0;locked=0;connectable=1;fillColor=#f5f5f5;fontColor=#333333;strokeColor=#666666;" parent="GzNEmD3VfXziyHX95NtM-45" vertex="1">
          <mxGeometry x="800" y="1827" width="750" height="1000" as="geometry" />
        </mxCell>
        <mxCell id="GzNEmD3VfXziyHX95NtM-62" value="" style="verticalLabelPosition=bottom;verticalAlign=top;html=1;shape=mxgraph.basic.rect;fillColor2=none;strokeWidth=1;size=20;indent=5;editable=0;movable=1;resizable=0;rotatable=1;deletable=0;locked=0;connectable=1;fillColor=#f5f5f5;fontColor=#333333;strokeColor=#666666;" parent="GzNEmD3VfXziyHX95NtM-45" vertex="1">
          <mxGeometry x="1500" y="2327" width="300" height="600" as="geometry" />
        </mxCell>
        <mxCell id="GzNEmD3VfXziyHX95NtM-63" value="" style="verticalLabelPosition=bottom;verticalAlign=top;html=1;shape=mxgraph.basic.rect;fillColor2=none;strokeWidth=1;size=20;indent=5;editable=0;movable=1;resizable=0;rotatable=1;deletable=0;locked=0;connectable=1;fillColor=#f5f5f5;fontColor=#333333;strokeColor=#666666;" parent="GzNEmD3VfXziyHX95NtM-45" vertex="1">
          <mxGeometry x="750" y="2477" width="50" height="350" as="geometry" />
        </mxCell>
        <mxCell id="GzNEmD3VfXziyHX95NtM-64" value="" style="verticalLabelPosition=bottom;verticalAlign=top;html=1;shape=mxgraph.basic.rect;fillColor2=none;strokeWidth=1;size=20;indent=5;editable=0;movable=1;resizable=0;rotatable=1;deletable=0;locked=0;connectable=1;fillColor=#f5f5f5;fontColor=#333333;strokeColor=#666666;" parent="GzNEmD3VfXziyHX95NtM-45" vertex="1">
          <mxGeometry x="700" y="2777" width="50" height="50" as="geometry" />
        </mxCell>
        <mxCell id="GzNEmD3VfXziyHX95NtM-65" value="" style="verticalLabelPosition=bottom;verticalAlign=top;html=1;shape=mxgraph.basic.rect;fillColor2=none;strokeWidth=1;size=14.86;indent=5;editable=0;movable=1;resizable=0;rotatable=1;deletable=0;locked=0;connectable=1;fillColor=#f5f5f5;fontColor=#333333;strokeColor=#666666;" parent="GzNEmD3VfXziyHX95NtM-45" vertex="1">
          <mxGeometry x="50" y="1677" width="700" height="150" as="geometry" />
        </mxCell>
        <mxCell id="GzNEmD3VfXziyHX95NtM-66" value="" style="verticalLabelPosition=bottom;verticalAlign=top;html=1;shape=mxgraph.basic.rect;fillColor2=none;strokeWidth=1;size=14.86;indent=5;editable=0;movable=1;resizable=0;rotatable=1;deletable=0;locked=0;connectable=1;fillColor=#f5f5f5;fontColor=#333333;strokeColor=#666666;" parent="GzNEmD3VfXziyHX95NtM-45" vertex="1">
          <mxGeometry y="1827" width="800" height="700" as="geometry" />
        </mxCell>
        <mxCell id="GzNEmD3VfXziyHX95NtM-67" value="" style="verticalLabelPosition=bottom;verticalAlign=top;html=1;shape=mxgraph.basic.rect;fillColor2=none;strokeWidth=1;size=14.86;indent=5;editable=0;movable=1;resizable=0;rotatable=1;deletable=0;locked=0;connectable=1;fillColor=#f5f5f5;fontColor=#333333;strokeColor=#666666;" parent="GzNEmD3VfXziyHX95NtM-45" vertex="1">
          <mxGeometry x="200" y="2527" width="550" height="250" as="geometry" />
        </mxCell>
        <mxCell id="GzNEmD3VfXziyHX95NtM-68" value="" style="verticalLabelPosition=bottom;verticalAlign=top;html=1;shape=mxgraph.basic.rect;fillColor2=none;strokeWidth=1;size=20;indent=5;editable=0;movable=1;resizable=0;rotatable=1;deletable=0;locked=0;connectable=1;fillColor=#f5f5f5;fontColor=#333333;strokeColor=#666666;" parent="GzNEmD3VfXziyHX95NtM-45" vertex="1">
          <mxGeometry x="2900" y="2927" width="50" height="50" as="geometry" />
        </mxCell>
        <mxCell id="GzNEmD3VfXziyHX95NtM-69" value="" style="verticalLabelPosition=bottom;verticalAlign=top;html=1;shape=mxgraph.basic.rect;fillColor2=none;strokeWidth=1;size=20;indent=5;editable=0;movable=1;resizable=0;rotatable=1;deletable=0;locked=0;connectable=1;fillColor=#f5f5f5;fontColor=#333333;strokeColor=#666666;" parent="GzNEmD3VfXziyHX95NtM-45" vertex="1">
          <mxGeometry x="980" y="2987" width="100" height="100" as="geometry" />
        </mxCell>
        <mxCell id="GzNEmD3VfXziyHX95NtM-71" value="" style="ellipse;whiteSpace=wrap;html=1;aspect=fixed;editable=0;movable=1;resizable=0;rotatable=1;deletable=0;locked=0;connectable=1;fillColor=#f5f5f5;fontColor=#333333;strokeColor=#666666;" parent="GzNEmD3VfXziyHX95NtM-45" vertex="1">
          <mxGeometry x="830" y="2992" width="105" height="105" as="geometry" />
        </mxCell>
        <mxCell id="GzNEmD3VfXziyHX95NtM-72" value="AxTx" style="ellipse;whiteSpace=wrap;html=1;aspect=fixed;editable=1;movable=1;resizable=1;rotatable=1;deletable=1;locked=0;connectable=1;fillColor=#f5f5f5;fontColor=#333333;strokeColor=#666666;fontSize=32;" parent="GzNEmD3VfXziyHX95NtM-45" vertex="1">
          <mxGeometry x="630" y="2957" width="145" height="145" as="geometry" />
        </mxCell>
        <mxCell id="GzNEmD3VfXziyHX95NtM-73" value="AxTx" style="ellipse;whiteSpace=wrap;html=1;aspect=fixed;editable=1;movable=1;resizable=1;rotatable=1;deletable=1;locked=0;connectable=1;fillColor=#f5f5f5;fontColor=#333333;strokeColor=#666666;fontSize=32;" parent="GzNEmD3VfXziyHX95NtM-45" vertex="1">
          <mxGeometry x="395" y="2902" width="200" height="200" as="geometry" />
        </mxCell>
        <mxCell id="GzNEmD3VfXziyHX95NtM-74" value="AxTx" style="ellipse;whiteSpace=wrap;html=1;aspect=fixed;editable=1;movable=1;resizable=1;rotatable=1;deletable=1;locked=0;connectable=1;fillColor=#f5f5f5;fontColor=#333333;strokeColor=#666666;fontSize=32;" parent="GzNEmD3VfXziyHX95NtM-45" vertex="1">
          <mxGeometry x="155" y="2902" width="200" height="200" as="geometry" />
        </mxCell>
        <mxCell id="S4rw2iDiVTAcTaovDXCU-30" value="R1T9" style="ellipse;whiteSpace=wrap;html=1;aspect=fixed;editable=1;movable=1;resizable=1;rotatable=1;deletable=1;locked=0;connectable=1;fillColor=#f5f5f5;fontColor=#333333;strokeColor=#666666;" parent="GzNEmD3VfXziyHX95NtM-45" vertex="1">
          <mxGeometry x="2902" y="2736.2993827160494" width="37.70061728395062" height="37.70061728395062" as="geometry" />
        </mxCell>
        <mxCell id="S4rw2iDiVTAcTaovDXCU-31" value="R1T8" style="ellipse;whiteSpace=wrap;html=1;aspect=fixed;editable=1;movable=1;resizable=1;rotatable=1;deletable=1;locked=0;connectable=1;fillColor=#f5f5f5;fontColor=#333333;strokeColor=#666666;" parent="GzNEmD3VfXziyHX95NtM-45" vertex="1">
          <mxGeometry x="2902" y="2696.4444444444443" width="37.70061728395062" height="37.70061728395062" as="geometry" />
        </mxCell>
        <mxCell id="S4rw2iDiVTAcTaovDXCU-32" value="R1T7" style="ellipse;whiteSpace=wrap;html=1;aspect=fixed;editable=1;movable=1;resizable=1;rotatable=1;deletable=1;locked=0;connectable=1;fillColor=#f5f5f5;fontColor=#333333;strokeColor=#666666;" parent="GzNEmD3VfXziyHX95NtM-45" vertex="1">
          <mxGeometry x="2902" y="2656.5895061728397" width="37.70061728395062" height="37.70061728395062" as="geometry" />
        </mxCell>
        <mxCell id="S4rw2iDiVTAcTaovDXCU-34" value="R1T6" style="ellipse;whiteSpace=wrap;html=1;aspect=fixed;editable=1;movable=1;resizable=1;rotatable=1;deletable=1;locked=0;connectable=1;fillColor=#f5f5f5;fontColor=#333333;strokeColor=#666666;" parent="GzNEmD3VfXziyHX95NtM-45" vertex="1">
          <mxGeometry x="2902" y="2616.7345679012346" width="37.70061728395062" height="37.70061728395062" as="geometry" />
        </mxCell>
        <mxCell id="S4rw2iDiVTAcTaovDXCU-35" value="R1T5" style="ellipse;whiteSpace=wrap;html=1;aspect=fixed;editable=1;movable=1;resizable=1;rotatable=1;deletable=1;locked=0;connectable=1;fillColor=#f5f5f5;fontColor=#333333;strokeColor=#666666;" parent="GzNEmD3VfXziyHX95NtM-45" vertex="1">
          <mxGeometry x="2902" y="2576.8796296296296" width="37.70061728395062" height="37.70061728395062" as="geometry" />
        </mxCell>
        <mxCell id="S4rw2iDiVTAcTaovDXCU-36" value="R1T4" style="ellipse;whiteSpace=wrap;html=1;aspect=fixed;editable=1;movable=1;resizable=1;rotatable=1;deletable=1;locked=0;connectable=1;fillColor=#f5f5f5;fontColor=#333333;strokeColor=#666666;" parent="GzNEmD3VfXziyHX95NtM-45" vertex="1">
          <mxGeometry x="2902" y="2537.024691358025" width="37.70061728395062" height="37.70061728395062" as="geometry" />
        </mxCell>
        <mxCell id="S4rw2iDiVTAcTaovDXCU-37" value="R1T3" style="ellipse;whiteSpace=wrap;html=1;aspect=fixed;editable=1;movable=1;resizable=1;rotatable=1;deletable=1;locked=0;connectable=1;fillColor=#f5f5f5;fontColor=#333333;strokeColor=#666666;" parent="GzNEmD3VfXziyHX95NtM-45" vertex="1">
          <mxGeometry x="2902" y="2497.16975308642" width="37.70061728395062" height="37.70061728395062" as="geometry" />
        </mxCell>
        <mxCell id="S4rw2iDiVTAcTaovDXCU-38" value="R1T2" style="ellipse;whiteSpace=wrap;html=1;aspect=fixed;editable=1;movable=1;resizable=1;rotatable=1;deletable=1;locked=0;connectable=1;fillColor=#f5f5f5;fontColor=#333333;strokeColor=#666666;" parent="GzNEmD3VfXziyHX95NtM-45" vertex="1">
          <mxGeometry x="2902" y="2459.4691358024693" width="32.314814814814824" height="32.314814814814824" as="geometry" />
        </mxCell>
        <mxCell id="S4rw2iDiVTAcTaovDXCU-39" value="R1T1" style="ellipse;whiteSpace=wrap;html=1;aspect=fixed;editable=1;movable=1;resizable=1;rotatable=1;deletable=1;locked=0;connectable=1;fillColor=#f5f5f5;fontColor=#333333;strokeColor=#666666;" parent="GzNEmD3VfXziyHX95NtM-45" vertex="1">
          <mxGeometry x="2902" y="2425" width="32.314814814814824" height="32.314814814814824" as="geometry" />
        </mxCell>
        <mxCell id="GzNEmD3VfXziyHX95NtM-5" value="Kjeller" parent="0" />
        <mxCell id="uO-Jlbd7GYopMe2RQ06U-51" value="" style="shape=corner;whiteSpace=wrap;html=1;direction=east;fillColor=#d5e8d4;strokeColor=#82b366;" vertex="1" parent="GzNEmD3VfXziyHX95NtM-5">
          <mxGeometry x="3755" y="2009" width="214" height="111" as="geometry" />
        </mxCell>
        <mxCell id="uO-Jlbd7GYopMe2RQ06U-53" value="" style="rounded=0;whiteSpace=wrap;html=1;fillColor=#d5e8d4;strokeColor=#82b366;" vertex="1" parent="GzNEmD3VfXziyHX95NtM-5">
          <mxGeometry x="3650" y="2141" width="105" height="28" as="geometry" />
        </mxCell>
        <mxCell id="uO-Jlbd7GYopMe2RQ06U-57" value="" style="rounded=0;whiteSpace=wrap;html=1;fillColor=#d5e8d4;strokeColor=#82b366;" vertex="1" parent="GzNEmD3VfXziyHX95NtM-5">
          <mxGeometry x="3883" y="2196" width="106" height="81" as="geometry" />
        </mxCell>
        <mxCell id="uO-Jlbd7GYopMe2RQ06U-58" value="" style="shape=corner;whiteSpace=wrap;html=1;direction=north;fillColor=#d5e8d4;strokeColor=#82b366;flipH=1;" vertex="1" parent="GzNEmD3VfXziyHX95NtM-5">
          <mxGeometry x="3875" y="2029" width="114" height="167" as="geometry" />
        </mxCell>
        <mxCell id="uO-Jlbd7GYopMe2RQ06U-59" value="" style="rounded=0;whiteSpace=wrap;html=1;fillColor=#d5e8d4;strokeColor=#82b366;" vertex="1" parent="GzNEmD3VfXziyHX95NtM-5">
          <mxGeometry x="3969" y="1948" width="66" height="81" as="geometry" />
        </mxCell>
        <mxCell id="uO-Jlbd7GYopMe2RQ06U-60" value="" style="rounded=0;whiteSpace=wrap;html=1;fillColor=#d5e8d4;strokeColor=#82b366;" vertex="1" parent="GzNEmD3VfXziyHX95NtM-5">
          <mxGeometry x="3650" y="2225" width="112" height="52" as="geometry" />
        </mxCell>
        <mxCell id="uO-Jlbd7GYopMe2RQ06U-62" value="" style="shape=corner;whiteSpace=wrap;html=1;direction=east;fillColor=#d5e8d4;strokeColor=#82b366;dx=103;dy=42;" vertex="1" parent="GzNEmD3VfXziyHX95NtM-5">
          <mxGeometry x="3650" y="2169" width="112" height="56" as="geometry" />
        </mxCell>
        <mxCell id="uO-Jlbd7GYopMe2RQ06U-45" value="" style="shape=corner;whiteSpace=wrap;html=1;direction=north;fillColor=#d5e8d4;strokeColor=#82b366;" vertex="1" parent="GzNEmD3VfXziyHX95NtM-5">
          <mxGeometry x="3755" y="2120" width="120" height="76" as="geometry" />
        </mxCell>
        <mxCell id="uO-Jlbd7GYopMe2RQ06U-63" value="" style="shape=corner;whiteSpace=wrap;html=1;direction=north;fillColor=#d5e8d4;strokeColor=#82b366;flipH=1;" vertex="1" parent="GzNEmD3VfXziyHX95NtM-5">
          <mxGeometry x="3751" y="2196" width="28" height="81" as="geometry" />
        </mxCell>
        <mxCell id="uO-Jlbd7GYopMe2RQ06U-64" value="" style="rounded=0;whiteSpace=wrap;html=1;fillColor=#d5e8d4;strokeColor=#82b366;direction=south;" vertex="1" parent="GzNEmD3VfXziyHX95NtM-5">
          <mxGeometry x="3779" y="2196" width="52" height="81" as="geometry" />
        </mxCell>
        <mxCell id="uO-Jlbd7GYopMe2RQ06U-65" value="" style="rounded=0;whiteSpace=wrap;html=1;fillColor=#d5e8d4;strokeColor=#82b366;direction=south;" vertex="1" parent="GzNEmD3VfXziyHX95NtM-5">
          <mxGeometry x="3831" y="2196" width="52" height="81" as="geometry" />
        </mxCell>
        <mxCell id="uO-Jlbd7GYopMe2RQ06U-66" value="" style="rounded=0;whiteSpace=wrap;html=1;fillColor=#d5e8d4;strokeColor=#82b366;" vertex="1" parent="GzNEmD3VfXziyHX95NtM-5">
          <mxGeometry x="3650" y="2009" width="105" height="132" as="geometry" />
        </mxCell>
        <mxCell id="uO-Jlbd7GYopMe2RQ06U-67" value="" style="rounded=0;whiteSpace=wrap;html=1;fillColor=#d5e8d4;strokeColor=#82b366;direction=south;" vertex="1" parent="GzNEmD3VfXziyHX95NtM-5">
          <mxGeometry x="3826" y="2132" width="91" height="44" as="geometry" />
        </mxCell>
        <mxCell id="uO-Jlbd7GYopMe2RQ06U-68" value="" style="rounded=0;whiteSpace=wrap;html=1;fillColor=#d5e8d4;strokeColor=#82b366;direction=south;" vertex="1" parent="GzNEmD3VfXziyHX95NtM-5">
          <mxGeometry x="3775" y="2112" width="51" height="64" as="geometry" />
        </mxCell>
        <mxCell id="uO-Jlbd7GYopMe2RQ06U-69" value="" style="rounded=0;whiteSpace=wrap;html=1;fillColor=#d5e8d4;strokeColor=#82b366;direction=south;" vertex="1" parent="GzNEmD3VfXziyHX95NtM-5">
          <mxGeometry x="3917" y="2132" width="52" height="44" as="geometry" />
        </mxCell>
        <mxCell id="uO-Jlbd7GYopMe2RQ06U-70" value="" style="shape=corner;whiteSpace=wrap;html=1;direction=east;fillColor=#d5e8d4;strokeColor=#82b366;dx=61;dy=20;" vertex="1" parent="GzNEmD3VfXziyHX95NtM-5">
          <mxGeometry x="3650" y="2009" width="75" height="38" as="geometry" />
        </mxCell>
        <mxCell id="uO-Jlbd7GYopMe2RQ06U-71" value="" style="shape=corner;whiteSpace=wrap;html=1;direction=east;fillColor=#d5e8d4;strokeColor=#82b366;dx=61;dy=20;flipV=1;" vertex="1" parent="GzNEmD3VfXziyHX95NtM-5">
          <mxGeometry x="3650" y="1827" width="123" height="182" as="geometry" />
        </mxCell>
        <mxCell id="S4rw2iDiVTAcTaovDXCU-44" value="Kjeller skap" parent="0" visible="0" />
        <mxCell id="GzNEmD3VfXziyHX95NtM-4" value="Grunnplan" parent="0" />
        <mxCell id="h_ZqSWhydHnjJ5OdPfgj-34" value="&lt;font style=&quot;font-size: 9px;&quot;&gt;B3 rom&lt;/font&gt;" style="rounded=0;whiteSpace=wrap;html=1;fillColor=#dae8fc;strokeColor=#6c8ebf;direction=west;" parent="GzNEmD3VfXziyHX95NtM-4" vertex="1">
          <mxGeometry x="2708" y="2077" width="192" height="250" as="geometry" />
        </mxCell>
        <mxCell id="GzNEmD3VfXziyHX95NtM-79" value="Tapperi&lt;div&gt;&lt;br&gt;&lt;/div&gt;&lt;div&gt;&lt;br&gt;&lt;/div&gt;&lt;div&gt;&lt;br&gt;&lt;/div&gt;" style="shape=corner;whiteSpace=wrap;html=1;fillColor=#dae8fc;strokeColor=#6c8ebf;direction=south;dx=241;dy=541;fontSize=32;" parent="GzNEmD3VfXziyHX95NtM-4" vertex="1">
          <mxGeometry x="1800" y="2327" width="1100" height="450" as="geometry" />
        </mxCell>
        <mxCell id="GzNEmD3VfXziyHX95NtM-76" value="Prosess" style="verticalLabelPosition=middle;verticalAlign=middle;html=1;shape=mxgraph.basic.corner_round_rect;dx=6;whiteSpace=wrap;flipH=1;direction=south;fillColor=light-dark(#a4c5f4, #1d293b);strokeColor=#6c8ebf;labelPosition=center;align=center;" parent="GzNEmD3VfXziyHX95NtM-4" vertex="1">
          <mxGeometry x="2680" y="2377" width="220" height="400" as="geometry" />
        </mxCell>
        <mxCell id="GzNEmD3VfXziyHX95NtM-77" value="&lt;font style=&quot;font-size: 9px;&quot;&gt;Konteinervask&lt;/font&gt;" style="rounded=0;whiteSpace=wrap;html=1;fillColor=#dae8fc;strokeColor=#6c8ebf;" parent="GzNEmD3VfXziyHX95NtM-4" vertex="1">
          <mxGeometry x="2900" y="2279" width="101" height="98" as="geometry" />
        </mxCell>
        <mxCell id="GzNEmD3VfXziyHX95NtM-82" value="&lt;font size=&quot;1&quot;&gt;Ventilservice rom&lt;/font&gt;" style="rounded=0;whiteSpace=wrap;html=1;fillColor=#dae8fc;strokeColor=#6c8ebf;" parent="GzNEmD3VfXziyHX95NtM-4" vertex="1">
          <mxGeometry x="2900" y="2077" width="101" height="54" as="geometry" />
        </mxCell>
        <mxCell id="GzNEmD3VfXziyHX95NtM-83" value="&lt;font style=&quot;font-size: 9px;&quot;&gt;Styresentral&lt;/font&gt;" style="rounded=0;whiteSpace=wrap;html=1;fillColor=#dae8fc;strokeColor=#6c8ebf;" parent="GzNEmD3VfXziyHX95NtM-4" vertex="1">
          <mxGeometry x="2254" y="2568" width="106" height="70" as="geometry" />
        </mxCell>
        <mxCell id="GzNEmD3VfXziyHX95NtM-84" value="&lt;font style=&quot;font-size: 9px;&quot;&gt;Trapp&lt;/font&gt;" style="rounded=0;whiteSpace=wrap;html=1;fillColor=#dae8fc;strokeColor=#6c8ebf;" parent="GzNEmD3VfXziyHX95NtM-4" vertex="1">
          <mxGeometry x="2287" y="2638" width="73" height="49" as="geometry" />
        </mxCell>
        <mxCell id="GzNEmD3VfXziyHX95NtM-85" value="&lt;font style=&quot;font-size: 9px;&quot;&gt;Heis&lt;/font&gt;" style="rounded=0;whiteSpace=wrap;html=1;fillColor=#dae8fc;strokeColor=#6c8ebf;" parent="GzNEmD3VfXziyHX95NtM-4" vertex="1">
          <mxGeometry x="2310" y="2687" width="50" height="22" as="geometry" />
        </mxCell>
        <mxCell id="GzNEmD3VfXziyHX95NtM-86" value="&lt;font style=&quot;font-size: 9px;&quot;&gt;Serverrom&lt;/font&gt;" style="rounded=0;whiteSpace=wrap;html=1;fillColor=#dae8fc;strokeColor=#6c8ebf;" parent="GzNEmD3VfXziyHX95NtM-4" vertex="1">
          <mxGeometry x="2208" y="2568" width="46" height="70" as="geometry" />
        </mxCell>
        <mxCell id="GzNEmD3VfXziyHX95NtM-87" value="&lt;font style=&quot;font-size: 9px;&quot;&gt;Tavlerom&lt;/font&gt;" style="rounded=0;whiteSpace=wrap;html=1;fillColor=#dae8fc;strokeColor=#6c8ebf;" parent="GzNEmD3VfXziyHX95NtM-4" vertex="1">
          <mxGeometry x="2164" y="2568" width="44" height="70" as="geometry" />
        </mxCell>
        <mxCell id="GzNEmD3VfXziyHX95NtM-88" value="&lt;font style=&quot;font-size: 9px;&quot;&gt;Tavle-møterom&lt;/font&gt;" style="rounded=0;whiteSpace=wrap;html=1;fillColor=#dae8fc;strokeColor=#6c8ebf;" parent="GzNEmD3VfXziyHX95NtM-4" vertex="1">
          <mxGeometry x="2127" y="2568" width="41" height="70" as="geometry" />
        </mxCell>
        <mxCell id="GzNEmD3VfXziyHX95NtM-89" value="&lt;font style=&quot;font-size: 9px;&quot;&gt;Korridor&lt;/font&gt;" style="rounded=0;whiteSpace=wrap;html=1;fillColor=#dae8fc;strokeColor=#6c8ebf;" parent="GzNEmD3VfXziyHX95NtM-4" vertex="1">
          <mxGeometry x="2094" y="2687" width="216" height="22" as="geometry" />
        </mxCell>
        <mxCell id="h_ZqSWhydHnjJ5OdPfgj-13" value="&lt;font style=&quot;font-size: 9px;&quot;&gt;Kontorlandskap&lt;/font&gt;" style="rounded=0;whiteSpace=wrap;html=1;fillColor=#dae8fc;strokeColor=#6c8ebf;" parent="GzNEmD3VfXziyHX95NtM-4" vertex="1">
          <mxGeometry x="2169" y="2709" width="141" height="68" as="geometry" />
        </mxCell>
        <mxCell id="h_ZqSWhydHnjJ5OdPfgj-14" value="&lt;font style=&quot;font-size: 9px;&quot;&gt;Kontor&lt;/font&gt;&lt;div&gt;&lt;font style=&quot;font-size: 9px;&quot;&gt;rom&lt;/font&gt;&lt;/div&gt;" style="rounded=0;whiteSpace=wrap;html=1;fillColor=#dae8fc;strokeColor=#6c8ebf;" parent="GzNEmD3VfXziyHX95NtM-4" vertex="1">
          <mxGeometry x="2310" y="2709" width="50" height="68" as="geometry" />
        </mxCell>
        <mxCell id="h_ZqSWhydHnjJ5OdPfgj-15" value="&lt;div&gt;&lt;br&gt;&lt;/div&gt;Herredo" style="shape=corner;whiteSpace=wrap;html=1;fillColor=#dae8fc;strokeColor=#6c8ebf;direction=north;" parent="GzNEmD3VfXziyHX95NtM-4" vertex="1">
          <mxGeometry x="2234" y="2650" width="53" height="37" as="geometry" />
        </mxCell>
        <mxCell id="h_ZqSWhydHnjJ5OdPfgj-16" value="&lt;font style=&quot;font-size: 9px;&quot;&gt;Kjølerom&lt;/font&gt;" style="rounded=0;whiteSpace=wrap;html=1;fillColor=#dae8fc;strokeColor=#6c8ebf;textDirection=vertical-lr;" parent="GzNEmD3VfXziyHX95NtM-4" vertex="1">
          <mxGeometry x="2212" y="2638" width="22" height="49" as="geometry" />
        </mxCell>
        <mxCell id="h_ZqSWhydHnjJ5OdPfgj-17" value="&lt;font style=&quot;font-size: 9px;&quot;&gt;Div&lt;/font&gt;" style="rounded=0;whiteSpace=wrap;html=1;fillColor=#dae8fc;strokeColor=#6c8ebf;textDirection=vertical-lr;" parent="GzNEmD3VfXziyHX95NtM-4" vertex="1">
          <mxGeometry x="2190" y="2638" width="22" height="49" as="geometry" />
        </mxCell>
        <mxCell id="h_ZqSWhydHnjJ5OdPfgj-18" value="&lt;font style=&quot;font-size: 9px;&quot;&gt;Poding&lt;/font&gt;" style="rounded=0;whiteSpace=wrap;html=1;fillColor=#dae8fc;strokeColor=#6c8ebf;textDirection=vertical-lr;" parent="GzNEmD3VfXziyHX95NtM-4" vertex="1">
          <mxGeometry x="2159" y="2638" width="31" height="49" as="geometry" />
        </mxCell>
        <mxCell id="h_ZqSWhydHnjJ5OdPfgj-19" value="&lt;font style=&quot;font-size: 9px;&quot;&gt;Div&lt;/font&gt;" style="rounded=0;whiteSpace=wrap;html=1;fillColor=#dae8fc;strokeColor=#6c8ebf;textDirection=vertical-lr;" parent="GzNEmD3VfXziyHX95NtM-4" vertex="1">
          <mxGeometry x="2127" y="2638" width="32" height="49" as="geometry" />
        </mxCell>
        <mxCell id="h_ZqSWhydHnjJ5OdPfgj-21" value="&lt;div&gt;Vedlikehold&lt;/div&gt;" style="shape=corner;whiteSpace=wrap;html=1;fillColor=#dae8fc;strokeColor=#6c8ebf;direction=west;dx=54;dy=87;" parent="GzNEmD3VfXziyHX95NtM-4" vertex="1">
          <mxGeometry x="2014" y="2568" width="113" height="119" as="geometry" />
        </mxCell>
        <mxCell id="h_ZqSWhydHnjJ5OdPfgj-23" value="&lt;font style=&quot;font-size: 9px;&quot;&gt;Vedlikehold&lt;/font&gt;" style="rounded=0;whiteSpace=wrap;html=1;fillColor=#dae8fc;strokeColor=#6c8ebf;" parent="GzNEmD3VfXziyHX95NtM-4" vertex="1">
          <mxGeometry x="2014" y="2687" width="113" height="90" as="geometry" />
        </mxCell>
        <mxCell id="h_ZqSWhydHnjJ5OdPfgj-24" value="&lt;font style=&quot;font-size: 9px;&quot;&gt;Emballasjelager&lt;/font&gt;" style="rounded=0;whiteSpace=wrap;html=1;fillColor=#dae8fc;strokeColor=#6c8ebf;" parent="GzNEmD3VfXziyHX95NtM-4" vertex="1">
          <mxGeometry x="1800" y="2568" width="214" height="209" as="geometry" />
        </mxCell>
        <mxCell id="h_ZqSWhydHnjJ5OdPfgj-25" value="&lt;font style=&quot;font-size: 9px;&quot;&gt;Vedl&lt;/font&gt;" style="rounded=0;whiteSpace=wrap;html=1;fillColor=#dae8fc;strokeColor=#6c8ebf;" parent="GzNEmD3VfXziyHX95NtM-4" vertex="1">
          <mxGeometry x="2127" y="2709" width="42" height="68" as="geometry" />
        </mxCell>
        <mxCell id="h_ZqSWhydHnjJ5OdPfgj-26" value="&lt;font size=&quot;1&quot;&gt;Melkemottak&lt;/font&gt;" style="rounded=0;whiteSpace=wrap;html=1;fillColor=#dae8fc;strokeColor=#6c8ebf;" parent="GzNEmD3VfXziyHX95NtM-4" vertex="1">
          <mxGeometry x="3001" y="2077" width="349" height="300" as="geometry" />
        </mxCell>
        <mxCell id="h_ZqSWhydHnjJ5OdPfgj-27" value="&lt;font style=&quot;font-size: 9px;&quot;&gt;Melkemottak operatørstasjon&lt;/font&gt;" style="rounded=0;whiteSpace=wrap;html=1;fillColor=#dae8fc;strokeColor=#6c8ebf;" parent="GzNEmD3VfXziyHX95NtM-4" vertex="1">
          <mxGeometry x="2929" y="2221" width="72" height="32" as="geometry" />
        </mxCell>
        <mxCell id="h_ZqSWhydHnjJ5OdPfgj-29" value="&lt;font style=&quot;font-size: 9px;&quot;&gt;Trapp ned&lt;/font&gt;" style="rounded=0;whiteSpace=wrap;html=1;fillColor=#dae8fc;strokeColor=#6c8ebf;" parent="GzNEmD3VfXziyHX95NtM-4" vertex="1">
          <mxGeometry x="2929" y="2253" width="72" height="26" as="geometry" />
        </mxCell>
        <mxCell id="h_ZqSWhydHnjJ5OdPfgj-30" value="&lt;div&gt;Melkemottak lab&lt;/div&gt;&lt;div&gt;&lt;br&gt;&lt;/div&gt;&lt;div&gt;&lt;br&gt;&lt;/div&gt;&lt;div&gt;&lt;br&gt;&lt;/div&gt;" style="shape=corner;whiteSpace=wrap;html=1;fillColor=#dae8fc;strokeColor=#6c8ebf;direction=east;dx=29;dy=45;" parent="GzNEmD3VfXziyHX95NtM-4" vertex="1">
          <mxGeometry x="2900" y="2176" width="101" height="103" as="geometry" />
        </mxCell>
        <mxCell id="h_ZqSWhydHnjJ5OdPfgj-31" value="&lt;font style=&quot;font-size: 9px;&quot;&gt;Trapp ned&lt;/font&gt;" style="rounded=0;whiteSpace=wrap;html=1;fillColor=#dae8fc;strokeColor=#6c8ebf;" parent="GzNEmD3VfXziyHX95NtM-4" vertex="1">
          <mxGeometry x="2929" y="2162" width="72" height="26" as="geometry" />
        </mxCell>
        <mxCell id="h_ZqSWhydHnjJ5OdPfgj-33" value="&lt;font style=&quot;font-size: 9px;&quot;&gt;Tavlerom&lt;/font&gt;" style="rounded=0;whiteSpace=wrap;html=1;fillColor=#dae8fc;strokeColor=#6c8ebf;direction=west;textDirection=vertical-lr;" parent="GzNEmD3VfXziyHX95NtM-4" vertex="1">
          <mxGeometry x="2869" y="2279" width="31" height="48" as="geometry" />
        </mxCell>
        <mxCell id="h_ZqSWhydHnjJ5OdPfgj-35" value="&lt;font style=&quot;font-size: 9px;&quot;&gt;Sveiseverksted&lt;/font&gt;" style="rounded=0;whiteSpace=wrap;html=1;fillColor=#dae8fc;strokeColor=#6c8ebf;direction=west;" parent="GzNEmD3VfXziyHX95NtM-4" vertex="1">
          <mxGeometry x="2708" y="1911" width="192" height="166" as="geometry" />
        </mxCell>
        <mxCell id="h_ZqSWhydHnjJ5OdPfgj-36" value="&lt;font style=&quot;font-size: 9px;&quot;&gt;Gamle palletering&lt;/font&gt;" style="rounded=0;whiteSpace=wrap;html=1;fillColor=#dae8fc;strokeColor=#6c8ebf;direction=west;" parent="GzNEmD3VfXziyHX95NtM-4" vertex="1">
          <mxGeometry x="2516" y="1911" width="192" height="416" as="geometry" />
        </mxCell>
        <mxCell id="h_ZqSWhydHnjJ5OdPfgj-37" value="&lt;font style=&quot;font-size: 9px;&quot;&gt;Trucklading&lt;/font&gt;" style="rounded=0;whiteSpace=wrap;html=1;fillColor=#dae8fc;strokeColor=#6c8ebf;direction=west;" parent="GzNEmD3VfXziyHX95NtM-4" vertex="1">
          <mxGeometry x="2605" y="1827" width="295" height="84" as="geometry" />
        </mxCell>
        <mxCell id="S4rw2iDiVTAcTaovDXCU-40" value="Palletering nedbaner" style="rounded=0;whiteSpace=wrap;html=1;fillColor=#dae8fc;strokeColor=#6c8ebf;direction=west;fontSize=7;" parent="GzNEmD3VfXziyHX95NtM-4" vertex="1">
          <mxGeometry x="2463" y="2257" width="53" height="70" as="geometry" />
        </mxCell>
        <mxCell id="S4rw2iDiVTAcTaovDXCU-41" value="Sluse til lager" style="rounded=0;whiteSpace=wrap;html=1;fillColor=#dae8fc;strokeColor=#6c8ebf;direction=west;fontSize=7;" parent="GzNEmD3VfXziyHX95NtM-4" vertex="1">
          <mxGeometry x="2397" y="2296" width="66" height="31" as="geometry" />
        </mxCell>
        <mxCell id="S4rw2iDiVTAcTaovDXCU-87" value="Grunnplan tanker" parent="0" />
        <mxCell id="S4rw2iDiVTAcTaovDXCU-88" value="P7T1" style="ellipse;whiteSpace=wrap;html=1;aspect=fixed;fillColor=#e1d5e7;strokeColor=#9673a6;" parent="S4rw2iDiVTAcTaovDXCU-87" vertex="1">
          <mxGeometry x="2656" y="2739" width="33" height="33" as="geometry" />
        </mxCell>
        <mxCell id="S4rw2iDiVTAcTaovDXCU-89" value="P7T2" style="ellipse;whiteSpace=wrap;html=1;aspect=fixed;fillColor=#e1d5e7;strokeColor=#9673a6;" parent="S4rw2iDiVTAcTaovDXCU-87" vertex="1">
          <mxGeometry x="2694" y="2739" width="33" height="33" as="geometry" />
        </mxCell>
        <mxCell id="S4rw2iDiVTAcTaovDXCU-96" value="P7T9" style="ellipse;whiteSpace=wrap;html=1;aspect=fixed;fillColor=#e1d5e7;strokeColor=#9673a6;" parent="S4rw2iDiVTAcTaovDXCU-87" vertex="1">
          <mxGeometry x="2451" y="2617" width="28" height="28" as="geometry" />
        </mxCell>
        <mxCell id="S4rw2iDiVTAcTaovDXCU-97" value="P7T8" style="ellipse;whiteSpace=wrap;html=1;aspect=fixed;fillColor=#e1d5e7;strokeColor=#9673a6;" parent="S4rw2iDiVTAcTaovDXCU-87" vertex="1">
          <mxGeometry x="2485" y="2617" width="28" height="28" as="geometry" />
        </mxCell>
        <mxCell id="S4rw2iDiVTAcTaovDXCU-98" value="P7T7" style="ellipse;whiteSpace=wrap;html=1;aspect=fixed;fillColor=#e1d5e7;strokeColor=#9673a6;" parent="S4rw2iDiVTAcTaovDXCU-87" vertex="1">
          <mxGeometry x="2519" y="2617" width="28" height="28" as="geometry" />
        </mxCell>
        <mxCell id="S4rw2iDiVTAcTaovDXCU-99" value="P7T6" style="ellipse;whiteSpace=wrap;html=1;aspect=fixed;fillColor=#e1d5e7;strokeColor=#9673a6;" parent="S4rw2iDiVTAcTaovDXCU-87" vertex="1">
          <mxGeometry x="2553" y="2617" width="28" height="28" as="geometry" />
        </mxCell>
        <mxCell id="S4rw2iDiVTAcTaovDXCU-104" value="RxTx" style="ellipse;whiteSpace=wrap;html=1;aspect=fixed;fillColor=#e1d5e7;strokeColor=#9673a6;" parent="S4rw2iDiVTAcTaovDXCU-87" vertex="1">
          <mxGeometry x="2755" y="2733" width="33" height="33" as="geometry" />
        </mxCell>
        <mxCell id="S4rw2iDiVTAcTaovDXCU-105" value="RxTx" style="ellipse;whiteSpace=wrap;html=1;aspect=fixed;fillColor=#e1d5e7;strokeColor=#9673a6;" parent="S4rw2iDiVTAcTaovDXCU-87" vertex="1">
          <mxGeometry x="2789" y="2733" width="33" height="33" as="geometry" />
        </mxCell>
        <mxCell id="S4rw2iDiVTAcTaovDXCU-106" value="RxTx" style="ellipse;whiteSpace=wrap;html=1;aspect=fixed;fillColor=#e1d5e7;strokeColor=#9673a6;" parent="S4rw2iDiVTAcTaovDXCU-87" vertex="1">
          <mxGeometry x="2823" y="2733" width="33" height="33" as="geometry" />
        </mxCell>
        <mxCell id="S4rw2iDiVTAcTaovDXCU-108" value="RxTx" style="ellipse;whiteSpace=wrap;html=1;aspect=fixed;fillColor=#e1d5e7;strokeColor=#9673a6;" parent="S4rw2iDiVTAcTaovDXCU-87" vertex="1">
          <mxGeometry x="2823" y="2699" width="33" height="33" as="geometry" />
        </mxCell>
        <mxCell id="S4rw2iDiVTAcTaovDXCU-109" value="RxTx" style="ellipse;whiteSpace=wrap;html=1;aspect=fixed;fillColor=#e1d5e7;strokeColor=#9673a6;" parent="S4rw2iDiVTAcTaovDXCU-87" vertex="1">
          <mxGeometry x="2823" y="2665" width="33" height="33" as="geometry" />
        </mxCell>
        <mxCell id="S4rw2iDiVTAcTaovDXCU-110" value="RxTx" style="ellipse;whiteSpace=wrap;html=1;aspect=fixed;fillColor=#e1d5e7;strokeColor=#9673a6;" parent="S4rw2iDiVTAcTaovDXCU-87" vertex="1">
          <mxGeometry x="2823" y="2631" width="33" height="33" as="geometry" />
        </mxCell>
        <mxCell id="S4rw2iDiVTAcTaovDXCU-111" value="RxTx" style="ellipse;whiteSpace=wrap;html=1;aspect=fixed;fillColor=#e1d5e7;strokeColor=#9673a6;" parent="S4rw2iDiVTAcTaovDXCU-87" vertex="1">
          <mxGeometry x="2823" y="2597" width="33" height="33" as="geometry" />
        </mxCell>
        <mxCell id="S4rw2iDiVTAcTaovDXCU-113" value="R8Tx" style="ellipse;whiteSpace=wrap;html=1;aspect=fixed;fillColor=#e1d5e7;strokeColor=#9673a6;" parent="S4rw2iDiVTAcTaovDXCU-87" vertex="1">
          <mxGeometry x="2866" y="2377" width="33" height="33" as="geometry" />
        </mxCell>
        <mxCell id="S4rw2iDiVTAcTaovDXCU-114" value="R8Tx" style="ellipse;whiteSpace=wrap;html=1;aspect=fixed;fillColor=#e1d5e7;strokeColor=#9673a6;" parent="S4rw2iDiVTAcTaovDXCU-87" vertex="1">
          <mxGeometry x="2832" y="2377" width="33" height="33" as="geometry" />
        </mxCell>
        <mxCell id="S4rw2iDiVTAcTaovDXCU-115" value="R8Tx" style="ellipse;whiteSpace=wrap;html=1;aspect=fixed;fillColor=#e1d5e7;strokeColor=#9673a6;" parent="S4rw2iDiVTAcTaovDXCU-87" vertex="1">
          <mxGeometry x="2832" y="2411" width="33" height="33" as="geometry" />
        </mxCell>
        <mxCell id="S4rw2iDiVTAcTaovDXCU-116" value="P3Tx" style="ellipse;whiteSpace=wrap;html=1;aspect=fixed;fillColor=#e1d5e7;strokeColor=#9673a6;" parent="S4rw2iDiVTAcTaovDXCU-87" vertex="1">
          <mxGeometry x="2456" y="2559" width="32" height="32" as="geometry" />
        </mxCell>
        <mxCell id="S4rw2iDiVTAcTaovDXCU-117" value="P3Tx" style="ellipse;whiteSpace=wrap;html=1;aspect=fixed;fillColor=#e1d5e7;strokeColor=#9673a6;" parent="S4rw2iDiVTAcTaovDXCU-87" vertex="1">
          <mxGeometry x="2490" y="2559" width="32" height="32" as="geometry" />
        </mxCell>
        <mxCell id="S4rw2iDiVTAcTaovDXCU-118" value="P3Tx" style="ellipse;whiteSpace=wrap;html=1;aspect=fixed;fillColor=#e1d5e7;strokeColor=#9673a6;" parent="S4rw2iDiVTAcTaovDXCU-87" vertex="1">
          <mxGeometry x="2524" y="2559" width="32" height="32" as="geometry" />
        </mxCell>
        <mxCell id="S4rw2iDiVTAcTaovDXCU-119" value="P3Tx" style="ellipse;whiteSpace=wrap;html=1;aspect=fixed;fillColor=#e1d5e7;strokeColor=#9673a6;" parent="S4rw2iDiVTAcTaovDXCU-87" vertex="1">
          <mxGeometry x="2564" y="2559" width="32" height="32" as="geometry" />
        </mxCell>
        <mxCell id="S4rw2iDiVTAcTaovDXCU-120" value="PxTx" style="ellipse;whiteSpace=wrap;html=1;aspect=fixed;fillColor=#e1d5e7;strokeColor=#9673a6;" parent="S4rw2iDiVTAcTaovDXCU-87" vertex="1">
          <mxGeometry x="2456" y="2504" width="32" height="32" as="geometry" />
        </mxCell>
        <mxCell id="S4rw2iDiVTAcTaovDXCU-121" value="PxTx" style="ellipse;whiteSpace=wrap;html=1;aspect=fixed;fillColor=#e1d5e7;strokeColor=#9673a6;" parent="S4rw2iDiVTAcTaovDXCU-87" vertex="1">
          <mxGeometry x="2492" y="2504" width="32" height="32" as="geometry" />
        </mxCell>
        <mxCell id="S4rw2iDiVTAcTaovDXCU-122" value="PxTx" style="ellipse;whiteSpace=wrap;html=1;aspect=fixed;fillColor=#e1d5e7;strokeColor=#9673a6;" parent="S4rw2iDiVTAcTaovDXCU-87" vertex="1">
          <mxGeometry x="2528" y="2504" width="32" height="32" as="geometry" />
        </mxCell>
        <mxCell id="S4rw2iDiVTAcTaovDXCU-123" value="PxTx" style="ellipse;whiteSpace=wrap;html=1;aspect=fixed;fillColor=#e1d5e7;strokeColor=#9673a6;" parent="S4rw2iDiVTAcTaovDXCU-87" vertex="1">
          <mxGeometry x="2564" y="2504" width="32" height="32" as="geometry" />
        </mxCell>
        <mxCell id="S4rw2iDiVTAcTaovDXCU-135" value="P5Tx" style="ellipse;whiteSpace=wrap;html=1;aspect=fixed;fillColor=#e1d5e7;strokeColor=#9673a6;fontSize=8;" parent="S4rw2iDiVTAcTaovDXCU-87" vertex="1">
          <mxGeometry x="2587" y="2643" width="25" height="25" as="geometry" />
        </mxCell>
        <mxCell id="S4rw2iDiVTAcTaovDXCU-136" value="P5Tx" style="ellipse;whiteSpace=wrap;html=1;aspect=fixed;fillColor=#e1d5e7;strokeColor=#9673a6;fontSize=8;" parent="S4rw2iDiVTAcTaovDXCU-87" vertex="1">
          <mxGeometry x="2587" y="2617" width="25" height="25" as="geometry" />
        </mxCell>
        <mxCell id="S4rw2iDiVTAcTaovDXCU-137" value="P5Tx" style="ellipse;whiteSpace=wrap;html=1;aspect=fixed;fillColor=#e1d5e7;strokeColor=#9673a6;fontSize=8;" parent="S4rw2iDiVTAcTaovDXCU-87" vertex="1">
          <mxGeometry x="2628" y="2643" width="25" height="25" as="geometry" />
        </mxCell>
        <mxCell id="S4rw2iDiVTAcTaovDXCU-138" value="P5Tx" style="ellipse;whiteSpace=wrap;html=1;aspect=fixed;fillColor=#e1d5e7;strokeColor=#9673a6;fontSize=8;" parent="S4rw2iDiVTAcTaovDXCU-87" vertex="1">
          <mxGeometry x="2628" y="2617" width="25" height="25" as="geometry" />
        </mxCell>
        <mxCell id="S4rw2iDiVTAcTaovDXCU-139" value="P5T9" style="ellipse;whiteSpace=wrap;html=1;aspect=fixed;fillColor=#e1d5e7;strokeColor=#9673a6;fontSize=9;" parent="S4rw2iDiVTAcTaovDXCU-87" vertex="1">
          <mxGeometry x="2453" y="2684" width="28" height="28" as="geometry" />
        </mxCell>
        <mxCell id="S4rw2iDiVTAcTaovDXCU-142" value="P5T8" style="ellipse;whiteSpace=wrap;html=1;aspect=fixed;fillColor=#e1d5e7;strokeColor=#9673a6;fontSize=9;" parent="S4rw2iDiVTAcTaovDXCU-87" vertex="1">
          <mxGeometry x="2483" y="2684" width="28" height="28" as="geometry" />
        </mxCell>
        <mxCell id="S4rw2iDiVTAcTaovDXCU-143" value="P5T7" style="ellipse;whiteSpace=wrap;html=1;aspect=fixed;fillColor=#e1d5e7;strokeColor=#9673a6;fontSize=9;" parent="S4rw2iDiVTAcTaovDXCU-87" vertex="1">
          <mxGeometry x="2513" y="2684" width="28" height="28" as="geometry" />
        </mxCell>
        <mxCell id="S4rw2iDiVTAcTaovDXCU-144" value="P5T5" style="ellipse;whiteSpace=wrap;html=1;aspect=fixed;fillColor=#e1d5e7;strokeColor=#9673a6;fontSize=9;" parent="S4rw2iDiVTAcTaovDXCU-87" vertex="1">
          <mxGeometry x="2543" y="2684" width="28" height="28" as="geometry" />
        </mxCell>
        <mxCell id="S4rw2iDiVTAcTaovDXCU-145" value="P5T3" style="ellipse;whiteSpace=wrap;html=1;aspect=fixed;fillColor=#e1d5e7;strokeColor=#9673a6;fontSize=9;" parent="S4rw2iDiVTAcTaovDXCU-87" vertex="1">
          <mxGeometry x="2573" y="2684" width="28" height="28" as="geometry" />
        </mxCell>
        <mxCell id="S4rw2iDiVTAcTaovDXCU-146" value="P5T1" style="ellipse;whiteSpace=wrap;html=1;aspect=fixed;fillColor=#e1d5e7;strokeColor=#9673a6;fontSize=9;" parent="S4rw2iDiVTAcTaovDXCU-87" vertex="1">
          <mxGeometry x="2603" y="2684" width="28" height="28" as="geometry" />
        </mxCell>
        <mxCell id="S4rw2iDiVTAcTaovDXCU-148" value="PxTx" style="ellipse;whiteSpace=wrap;html=1;aspect=fixed;fillColor=#e1d5e7;strokeColor=#9673a6;fontSize=9;" parent="S4rw2iDiVTAcTaovDXCU-87" vertex="1">
          <mxGeometry x="2442" y="2434" width="29" height="29" as="geometry" />
        </mxCell>
        <mxCell id="S4rw2iDiVTAcTaovDXCU-149" value="PxTx" style="ellipse;whiteSpace=wrap;html=1;aspect=fixed;fillColor=#e1d5e7;strokeColor=#9673a6;fontSize=9;" parent="S4rw2iDiVTAcTaovDXCU-87" vertex="1">
          <mxGeometry x="2474" y="2434" width="29" height="29" as="geometry" />
        </mxCell>
        <mxCell id="S4rw2iDiVTAcTaovDXCU-150" value="PxTx" style="ellipse;whiteSpace=wrap;html=1;aspect=fixed;fillColor=#e1d5e7;strokeColor=#9673a6;fontSize=9;" parent="S4rw2iDiVTAcTaovDXCU-87" vertex="1">
          <mxGeometry x="2507" y="2434" width="29" height="29" as="geometry" />
        </mxCell>
        <mxCell id="S4rw2iDiVTAcTaovDXCU-151" value="PxTx" style="ellipse;whiteSpace=wrap;html=1;aspect=fixed;fillColor=#e1d5e7;strokeColor=#9673a6;fontSize=9;" parent="S4rw2iDiVTAcTaovDXCU-87" vertex="1">
          <mxGeometry x="2540" y="2434" width="29" height="29" as="geometry" />
        </mxCell>
        <mxCell id="S4rw2iDiVTAcTaovDXCU-152" value="PxTx" style="ellipse;whiteSpace=wrap;html=1;aspect=fixed;fillColor=#e1d5e7;strokeColor=#9673a6;fontSize=9;" parent="S4rw2iDiVTAcTaovDXCU-87" vertex="1">
          <mxGeometry x="2520" y="2383" width="28" height="28" as="geometry" />
        </mxCell>
        <mxCell id="S4rw2iDiVTAcTaovDXCU-153" value="PxTx" style="ellipse;whiteSpace=wrap;html=1;aspect=fixed;fillColor=#e1d5e7;strokeColor=#9673a6;fontSize=9;" parent="S4rw2iDiVTAcTaovDXCU-87" vertex="1">
          <mxGeometry x="2548" y="2383" width="28" height="28" as="geometry" />
        </mxCell>
        <mxCell id="S4rw2iDiVTAcTaovDXCU-154" value="PxTx" style="ellipse;whiteSpace=wrap;html=1;aspect=fixed;fillColor=#e1d5e7;strokeColor=#9673a6;fontSize=9;" parent="S4rw2iDiVTAcTaovDXCU-87" vertex="1">
          <mxGeometry x="2573" y="2434" width="29" height="29" as="geometry" />
        </mxCell>
        <mxCell id="S4rw2iDiVTAcTaovDXCU-155" value="P3Tx" style="ellipse;whiteSpace=wrap;html=1;aspect=fixed;fillColor=#e1d5e7;strokeColor=#9673a6;" parent="S4rw2iDiVTAcTaovDXCU-87" vertex="1">
          <mxGeometry x="2600" y="2559" width="32" height="32" as="geometry" />
        </mxCell>
        <mxCell id="S4rw2iDiVTAcTaovDXCU-156" value="PxTx" style="ellipse;whiteSpace=wrap;html=1;aspect=fixed;fillColor=#e1d5e7;strokeColor=#9673a6;" parent="S4rw2iDiVTAcTaovDXCU-87" vertex="1">
          <mxGeometry x="2600" y="2504" width="32" height="32" as="geometry" />
        </mxCell>
        <mxCell id="S4rw2iDiVTAcTaovDXCU-159" value="PxTx" style="ellipse;whiteSpace=wrap;html=1;aspect=fixed;fillColor=#e1d5e7;strokeColor=#9673a6;fontSize=7;" parent="S4rw2iDiVTAcTaovDXCU-87" vertex="1">
          <mxGeometry x="2588" y="2416" width="18" height="18" as="geometry" />
        </mxCell>
        <mxCell id="S4rw2iDiVTAcTaovDXCU-160" value="PxTx" style="ellipse;whiteSpace=wrap;html=1;aspect=fixed;fillColor=#e1d5e7;strokeColor=#9673a6;fontSize=7;" parent="S4rw2iDiVTAcTaovDXCU-87" vertex="1">
          <mxGeometry x="2609" y="2416" width="18" height="18" as="geometry" />
        </mxCell>
        <mxCell id="S4rw2iDiVTAcTaovDXCU-161" value="PxTx" style="ellipse;whiteSpace=wrap;html=1;aspect=fixed;fillColor=#e1d5e7;strokeColor=#9673a6;fontSize=9;" parent="S4rw2iDiVTAcTaovDXCU-87" vertex="1">
          <mxGeometry x="2606" y="2434" width="29" height="29" as="geometry" />
        </mxCell>
        <mxCell id="S4rw2iDiVTAcTaovDXCU-162" value="PxTx" style="ellipse;whiteSpace=wrap;html=1;aspect=fixed;fillColor=#e1d5e7;strokeColor=#9673a6;fontSize=9;" parent="S4rw2iDiVTAcTaovDXCU-87" vertex="1">
          <mxGeometry x="2442" y="2344" width="29" height="29" as="geometry" />
        </mxCell>
        <mxCell id="S4rw2iDiVTAcTaovDXCU-163" value="PxTx" style="ellipse;whiteSpace=wrap;html=1;aspect=fixed;fillColor=#e1d5e7;strokeColor=#9673a6;fontSize=9;" parent="S4rw2iDiVTAcTaovDXCU-87" vertex="1">
          <mxGeometry x="2474" y="2344" width="29" height="29" as="geometry" />
        </mxCell>
        <mxCell id="S4rw2iDiVTAcTaovDXCU-164" value="PxTx" style="ellipse;whiteSpace=wrap;html=1;aspect=fixed;fillColor=#e1d5e7;strokeColor=#9673a6;fontSize=9;" parent="S4rw2iDiVTAcTaovDXCU-87" vertex="1">
          <mxGeometry x="2507" y="2344" width="29" height="29" as="geometry" />
        </mxCell>
        <mxCell id="S4rw2iDiVTAcTaovDXCU-165" value="PxTx" style="ellipse;whiteSpace=wrap;html=1;aspect=fixed;fillColor=#e1d5e7;strokeColor=#9673a6;fontSize=9;" parent="S4rw2iDiVTAcTaovDXCU-87" vertex="1">
          <mxGeometry x="2540" y="2344" width="29" height="29" as="geometry" />
        </mxCell>
        <mxCell id="S4rw2iDiVTAcTaovDXCU-166" value="PxTx" style="ellipse;whiteSpace=wrap;html=1;aspect=fixed;fillColor=#e1d5e7;strokeColor=#9673a6;fontSize=9;" parent="S4rw2iDiVTAcTaovDXCU-87" vertex="1">
          <mxGeometry x="2573" y="2344" width="29" height="29" as="geometry" />
        </mxCell>
        <mxCell id="S4rw2iDiVTAcTaovDXCU-167" value="PxTx" style="ellipse;whiteSpace=wrap;html=1;aspect=fixed;fillColor=#e1d5e7;strokeColor=#9673a6;fontSize=9;" parent="S4rw2iDiVTAcTaovDXCU-87" vertex="1">
          <mxGeometry x="2606" y="2344" width="29" height="29" as="geometry" />
        </mxCell>
        <mxCell id="S4rw2iDiVTAcTaovDXCU-168" value="PxTx" style="ellipse;whiteSpace=wrap;html=1;aspect=fixed;fillColor=#e1d5e7;strokeColor=#9673a6;fontSize=9;" parent="S4rw2iDiVTAcTaovDXCU-87" vertex="1">
          <mxGeometry x="2576" y="2383" width="28" height="28" as="geometry" />
        </mxCell>
        <mxCell id="S4rw2iDiVTAcTaovDXCU-169" value="PxTx" style="ellipse;whiteSpace=wrap;html=1;aspect=fixed;fillColor=#e1d5e7;strokeColor=#9673a6;fontSize=9;" parent="S4rw2iDiVTAcTaovDXCU-87" vertex="1">
          <mxGeometry x="2604" y="2383" width="28" height="28" as="geometry" />
        </mxCell>
        <mxCell id="S4rw2iDiVTAcTaovDXCU-170" value="C0T1" style="ellipse;whiteSpace=wrap;html=1;aspect=fixed;fillColor=#e1d5e7;strokeColor=#9673a6;fontSize=5;" parent="S4rw2iDiVTAcTaovDXCU-87" vertex="1">
          <mxGeometry x="2924" y="2283" width="17" height="17" as="geometry" />
        </mxCell>
        <mxCell id="S4rw2iDiVTAcTaovDXCU-171" value="C0T2" style="ellipse;whiteSpace=wrap;html=1;aspect=fixed;fillColor=#e1d5e7;strokeColor=#9673a6;fontSize=5;" parent="S4rw2iDiVTAcTaovDXCU-87" vertex="1">
          <mxGeometry x="2943" y="2283" width="17" height="17" as="geometry" />
        </mxCell>
        <mxCell id="S4rw2iDiVTAcTaovDXCU-172" value="C0T3" style="ellipse;whiteSpace=wrap;html=1;aspect=fixed;fillColor=#e1d5e7;strokeColor=#9673a6;fontSize=5;" parent="S4rw2iDiVTAcTaovDXCU-87" vertex="1">
          <mxGeometry x="2962" y="2283" width="17" height="17" as="geometry" />
        </mxCell>
        <mxCell id="S4rw2iDiVTAcTaovDXCU-173" value="C0T4" style="ellipse;whiteSpace=wrap;html=1;aspect=fixed;fillColor=#e1d5e7;strokeColor=#9673a6;fontSize=5;" parent="S4rw2iDiVTAcTaovDXCU-87" vertex="1">
          <mxGeometry x="2981" y="2283" width="17" height="17" as="geometry" />
        </mxCell>
        <mxCell id="S4rw2iDiVTAcTaovDXCU-174" value="R9Tx" style="ellipse;whiteSpace=wrap;html=1;aspect=fixed;fillColor=#e1d5e7;strokeColor=#9673a6;fontSize=9;" parent="S4rw2iDiVTAcTaovDXCU-87" vertex="1">
          <mxGeometry x="2521" y="2260" width="33" height="33" as="geometry" />
        </mxCell>
        <mxCell id="S4rw2iDiVTAcTaovDXCU-175" value="R9Tx" style="ellipse;whiteSpace=wrap;html=1;aspect=fixed;fillColor=#e1d5e7;strokeColor=#9673a6;fontSize=9;" parent="S4rw2iDiVTAcTaovDXCU-87" vertex="1">
          <mxGeometry x="2521" y="2225" width="33" height="33" as="geometry" />
        </mxCell>
        <object label="Grunnplan maskiner" id="S4rw2iDiVTAcTaovDXCU-47">
          <mxCell parent="0" />
        </object>
        <mxCell id="S4rw2iDiVTAcTaovDXCU-48" value="F1" style="rounded=0;whiteSpace=wrap;html=1;fillColor=#fff2cc;strokeColor=#d6b656;" parent="S4rw2iDiVTAcTaovDXCU-47" vertex="1">
          <mxGeometry x="1810" y="2420" width="28.294811320754718" height="78" as="geometry" />
        </mxCell>
        <mxCell id="S4rw2iDiVTAcTaovDXCU-49" value="F7" style="rounded=0;whiteSpace=wrap;html=1;fillColor=#fff2cc;strokeColor=#d6b656;" parent="S4rw2iDiVTAcTaovDXCU-47" vertex="1">
          <mxGeometry x="1847.2004716981132" y="2420" width="28.294811320754718" height="78" as="geometry" />
        </mxCell>
        <mxCell id="S4rw2iDiVTAcTaovDXCU-50" value="B7" style="rounded=0;whiteSpace=wrap;html=1;fillColor=#fff2cc;strokeColor=#d6b656;" parent="S4rw2iDiVTAcTaovDXCU-47" vertex="1">
          <mxGeometry x="1888.9245283018868" y="2420" width="28.294811320754718" height="78" as="geometry" />
        </mxCell>
        <mxCell id="S4rw2iDiVTAcTaovDXCU-51" value="F4" style="rounded=0;whiteSpace=wrap;html=1;fillColor=#fff2cc;strokeColor=#d6b656;" parent="S4rw2iDiVTAcTaovDXCU-47" vertex="1">
          <mxGeometry x="1927.6485849056603" y="2420" width="28.294811320754718" height="78" as="geometry" />
        </mxCell>
        <mxCell id="S4rw2iDiVTAcTaovDXCU-52" value="B4" style="rounded=0;whiteSpace=wrap;html=1;fillColor=#fff2cc;strokeColor=#d6b656;" parent="S4rw2iDiVTAcTaovDXCU-47" vertex="1">
          <mxGeometry x="1965.3726415094338" y="2420" width="28.294811320754718" height="78" as="geometry" />
        </mxCell>
        <mxCell id="S4rw2iDiVTAcTaovDXCU-53" value="F6" style="rounded=0;whiteSpace=wrap;html=1;fillColor=#fff2cc;strokeColor=#d6b656;" parent="S4rw2iDiVTAcTaovDXCU-47" vertex="1">
          <mxGeometry x="2039.4316037735848" y="2420" width="28.294811320754718" height="78" as="geometry" />
        </mxCell>
        <mxCell id="S4rw2iDiVTAcTaovDXCU-54" value="F5" style="rounded=0;whiteSpace=wrap;html=1;fillColor=#fff2cc;strokeColor=#d6b656;" parent="S4rw2iDiVTAcTaovDXCU-47" vertex="1">
          <mxGeometry x="2076.1556603773583" y="2420" width="28.294811320754718" height="78" as="geometry" />
        </mxCell>
        <mxCell id="S4rw2iDiVTAcTaovDXCU-55" value="F9" style="rounded=0;whiteSpace=wrap;html=1;fillColor=#fff2cc;strokeColor=#d6b656;" parent="S4rw2iDiVTAcTaovDXCU-47" vertex="1">
          <mxGeometry x="2114.705188679245" y="2420" width="28.294811320754718" height="78" as="geometry" />
        </mxCell>
        <mxCell id="S4rw2iDiVTAcTaovDXCU-59" value="&lt;div&gt;F8&lt;/div&gt;&lt;div&gt;&lt;br&gt;&lt;/div&gt;&lt;div&gt;&lt;br&gt;&lt;/div&gt;&lt;div&gt;&lt;br&gt;&lt;/div&gt;&lt;div&gt;&lt;br/&gt;&lt;/div&gt;" style="shape=corner;whiteSpace=wrap;html=1;fillColor=#fff2cc;strokeColor=#d6b656;direction=south;dx=18;dy=23;" parent="S4rw2iDiVTAcTaovDXCU-47" vertex="1">
          <mxGeometry x="2112" y="2348" width="71" height="80" as="geometry" />
        </mxCell>
        <mxCell id="S4rw2iDiVTAcTaovDXCU-60" value="B2&lt;br&gt;&lt;br&gt;&lt;br&gt;&lt;div&gt;&lt;br&gt;&lt;/div&gt;&lt;div&gt;&lt;br&gt;&lt;/div&gt;&lt;br&gt;&lt;div&gt;&lt;br&gt;&lt;/div&gt;&lt;div&gt;&lt;br&gt;&lt;/div&gt;&lt;div&gt;&lt;br/&gt;&lt;/div&gt;" style="shape=corner;whiteSpace=wrap;html=1;fillColor=#fff2cc;strokeColor=#d6b656;direction=south;dx=30;dy=44;" parent="S4rw2iDiVTAcTaovDXCU-47" vertex="1">
          <mxGeometry x="2209" y="2342" width="167" height="156" as="geometry" />
        </mxCell>
        <mxCell id="S4rw2iDiVTAcTaovDXCU-61" value="B5" style="rounded=0;whiteSpace=wrap;html=1;fillColor=#fff2cc;strokeColor=#d6b656;" parent="S4rw2iDiVTAcTaovDXCU-47" vertex="1">
          <mxGeometry x="2284" y="2405" width="44" height="93" as="geometry" />
        </mxCell>
        <mxCell id="S4rw2iDiVTAcTaovDXCU-62" value="F2" style="rounded=0;whiteSpace=wrap;html=1;fillColor=#fff2cc;strokeColor=#d6b656;" parent="S4rw2iDiVTAcTaovDXCU-47" vertex="1">
          <mxGeometry x="2203" y="2440" width="24" height="19" as="geometry" />
        </mxCell>
        <mxCell id="S4rw2iDiVTAcTaovDXCU-63" value="B1" style="rounded=0;whiteSpace=wrap;html=1;fillColor=#fff2cc;strokeColor=#d6b656;" parent="S4rw2iDiVTAcTaovDXCU-47" vertex="1">
          <mxGeometry x="2228" y="2441" width="50" height="57" as="geometry" />
        </mxCell>
        <mxCell id="S4rw2iDiVTAcTaovDXCU-65" value="B10&lt;br&gt;&lt;div&gt;&lt;br&gt;&lt;/div&gt;&lt;br&gt;&lt;div&gt;&lt;br/&gt;&lt;/div&gt;" style="shape=corner;whiteSpace=wrap;html=1;fillColor=#fff2cc;strokeColor=#d6b656;direction=east;dx=27;dy=55;" parent="S4rw2iDiVTAcTaovDXCU-47" vertex="1">
          <mxGeometry x="2374" y="2568" width="58" height="111" as="geometry" />
        </mxCell>
        <mxCell id="S4rw2iDiVTAcTaovDXCU-66" value="B8" style="rounded=0;whiteSpace=wrap;html=1;fillColor=#fff2cc;strokeColor=#d6b656;" parent="S4rw2iDiVTAcTaovDXCU-47" vertex="1">
          <mxGeometry x="2457" y="2731" width="175" height="41" as="geometry" />
        </mxCell>
        <mxCell id="S4rw2iDiVTAcTaovDXCU-67" value="B6" style="rounded=0;whiteSpace=wrap;html=1;fillColor=#fff2cc;strokeColor=#d6b656;" parent="S4rw2iDiVTAcTaovDXCU-47" vertex="1">
          <mxGeometry x="2378" y="2719" width="49" height="53" as="geometry" />
        </mxCell>
        <mxCell id="S4rw2iDiVTAcTaovDXCU-68" value="B9" style="rounded=0;whiteSpace=wrap;html=1;fillColor=#fff2cc;strokeColor=#d6b656;" parent="S4rw2iDiVTAcTaovDXCU-47" vertex="1">
          <mxGeometry x="2466" y="2536" width="27" height="21" as="geometry" />
        </mxCell>
        <mxCell id="S4rw2iDiVTAcTaovDXCU-43" value="Grunnplan skap" parent="0" />
        <mxCell id="uO-Jlbd7GYopMe2RQ06U-0" value="+MG4-A0x" style="rounded=0;whiteSpace=wrap;html=1;fillColor=#66B2FF;strokeColor=#6c8ebf;fontSize=1.5;" vertex="1" parent="S4rw2iDiVTAcTaovDXCU-43">
          <mxGeometry x="2240" y="2632" width="11" height="6" as="geometry" />
        </mxCell>
        <mxCell id="uO-Jlbd7GYopMe2RQ06U-1" value="+MG4-A0x" style="rounded=0;whiteSpace=wrap;html=1;fillColor=#66B2FF;strokeColor=#6c8ebf;fontSize=1.5;" vertex="1" parent="S4rw2iDiVTAcTaovDXCU-43">
          <mxGeometry x="2229" y="2632" width="11" height="6" as="geometry" />
        </mxCell>
        <mxCell id="uO-Jlbd7GYopMe2RQ06U-2" value="+MG4-A0x" style="rounded=0;whiteSpace=wrap;html=1;fillColor=#66B2FF;strokeColor=#6c8ebf;fontSize=1.5;" vertex="1" parent="S4rw2iDiVTAcTaovDXCU-43">
          <mxGeometry x="2221" y="2632" width="8" height="6" as="geometry" />
        </mxCell>
        <mxCell id="uO-Jlbd7GYopMe2RQ06U-3" value="+MG4-T0x" style="rounded=0;whiteSpace=wrap;html=1;fillColor=#66B2FF;strokeColor=#6c8ebf;fontSize=1.5;" vertex="1" parent="S4rw2iDiVTAcTaovDXCU-43">
          <mxGeometry x="2213" y="2632" width="8" height="6" as="geometry" />
        </mxCell>
        <mxCell id="uO-Jlbd7GYopMe2RQ06U-10" value="+MG4-A0x" style="rounded=0;whiteSpace=wrap;html=1;fillColor=#66B2FF;strokeColor=#6c8ebf;fontSize=1.5;direction=south;" vertex="1" parent="S4rw2iDiVTAcTaovDXCU-43">
          <mxGeometry x="2208" y="2608" width="6" height="11" as="geometry" />
        </mxCell>
        <mxCell id="uO-Jlbd7GYopMe2RQ06U-11" value="+MG4-A0x" style="rounded=0;whiteSpace=wrap;html=1;fillColor=#66B2FF;strokeColor=#6c8ebf;fontSize=1.5;direction=south;" vertex="1" parent="S4rw2iDiVTAcTaovDXCU-43">
          <mxGeometry x="2208" y="2597" width="6" height="11" as="geometry" />
        </mxCell>
        <mxCell id="uO-Jlbd7GYopMe2RQ06U-12" value="+MG4-A0x" style="rounded=0;whiteSpace=wrap;html=1;fillColor=#66B2FF;strokeColor=#6c8ebf;fontSize=1.5;direction=south;" vertex="1" parent="S4rw2iDiVTAcTaovDXCU-43">
          <mxGeometry x="2208" y="2586" width="6" height="11" as="geometry" />
        </mxCell>
        <mxCell id="uO-Jlbd7GYopMe2RQ06U-13" value="+MG4-A0x" style="rounded=0;whiteSpace=wrap;html=1;fillColor=#66B2FF;strokeColor=#6c8ebf;fontSize=1.5;direction=south;" vertex="1" parent="S4rw2iDiVTAcTaovDXCU-43">
          <mxGeometry x="2208" y="2578" width="6" height="8" as="geometry" />
        </mxCell>
        <mxCell id="uO-Jlbd7GYopMe2RQ06U-14" value="" style="rounded=0;whiteSpace=wrap;html=1;fillColor=#66B2FF;strokeColor=#6c8ebf;fontSize=1.5;direction=south;" vertex="1" parent="S4rw2iDiVTAcTaovDXCU-43">
          <mxGeometry x="2202" y="2582" width="6" height="8" as="geometry" />
        </mxCell>
        <mxCell id="uO-Jlbd7GYopMe2RQ06U-15" value="" style="rounded=0;whiteSpace=wrap;html=1;fillColor=#66B2FF;strokeColor=#6c8ebf;fontSize=1.5;direction=south;" vertex="1" parent="S4rw2iDiVTAcTaovDXCU-43">
          <mxGeometry x="2202" y="2590" width="6" height="8" as="geometry" />
        </mxCell>
        <mxCell id="uO-Jlbd7GYopMe2RQ06U-16" value="" style="rounded=0;whiteSpace=wrap;html=1;fillColor=#66B2FF;strokeColor=#6c8ebf;fontSize=1.5;direction=south;" vertex="1" parent="S4rw2iDiVTAcTaovDXCU-43">
          <mxGeometry x="2202" y="2598" width="6" height="8" as="geometry" />
        </mxCell>
        <mxCell id="uO-Jlbd7GYopMe2RQ06U-17" value="" style="rounded=0;whiteSpace=wrap;html=1;fillColor=#66B2FF;strokeColor=#6c8ebf;fontSize=1.5;direction=south;" vertex="1" parent="S4rw2iDiVTAcTaovDXCU-43">
          <mxGeometry x="2202" y="2606" width="6" height="8" as="geometry" />
        </mxCell>
        <mxCell id="uO-Jlbd7GYopMe2RQ06U-18" value="" style="rounded=0;whiteSpace=wrap;html=1;fillColor=#66B2FF;strokeColor=#6c8ebf;fontSize=1.5;direction=south;" vertex="1" parent="S4rw2iDiVTAcTaovDXCU-43">
          <mxGeometry x="2202" y="2614" width="6" height="8" as="geometry" />
        </mxCell>
        <mxCell id="uO-Jlbd7GYopMe2RQ06U-19" value="" style="rounded=0;whiteSpace=wrap;html=1;fillColor=#66B2FF;strokeColor=#6c8ebf;fontSize=1.5;direction=south;" vertex="1" parent="S4rw2iDiVTAcTaovDXCU-43">
          <mxGeometry x="2202" y="2622" width="6" height="8" as="geometry" />
        </mxCell>
        <mxCell id="uO-Jlbd7GYopMe2RQ06U-20" value="" style="rounded=0;whiteSpace=wrap;html=1;fillColor=#66B2FF;strokeColor=#6c8ebf;fontSize=1.5;direction=south;" vertex="1" parent="S4rw2iDiVTAcTaovDXCU-43">
          <mxGeometry x="2202" y="2630" width="6" height="8" as="geometry" />
        </mxCell>
        <mxCell id="uO-Jlbd7GYopMe2RQ06U-21" value="" style="rounded=0;whiteSpace=wrap;html=1;fillColor=#66B2FF;strokeColor=#6c8ebf;fontSize=1.5;direction=south;" vertex="1" parent="S4rw2iDiVTAcTaovDXCU-43">
          <mxGeometry x="2188" y="2582" width="6" height="8" as="geometry" />
        </mxCell>
        <mxCell id="uO-Jlbd7GYopMe2RQ06U-22" value="" style="rounded=0;whiteSpace=wrap;html=1;fillColor=#66B2FF;strokeColor=#6c8ebf;fontSize=1.5;direction=south;" vertex="1" parent="S4rw2iDiVTAcTaovDXCU-43">
          <mxGeometry x="2188" y="2590" width="6" height="8" as="geometry" />
        </mxCell>
        <mxCell id="uO-Jlbd7GYopMe2RQ06U-23" value="" style="rounded=0;whiteSpace=wrap;html=1;fillColor=#66B2FF;strokeColor=#6c8ebf;fontSize=1.5;direction=south;" vertex="1" parent="S4rw2iDiVTAcTaovDXCU-43">
          <mxGeometry x="2188" y="2598" width="6" height="8" as="geometry" />
        </mxCell>
        <mxCell id="uO-Jlbd7GYopMe2RQ06U-24" value="" style="rounded=0;whiteSpace=wrap;html=1;fillColor=#66B2FF;strokeColor=#6c8ebf;fontSize=1.5;direction=south;" vertex="1" parent="S4rw2iDiVTAcTaovDXCU-43">
          <mxGeometry x="2188" y="2606" width="6" height="8" as="geometry" />
        </mxCell>
        <mxCell id="uO-Jlbd7GYopMe2RQ06U-25" value="" style="rounded=0;whiteSpace=wrap;html=1;fillColor=#66B2FF;strokeColor=#6c8ebf;fontSize=1.5;direction=south;" vertex="1" parent="S4rw2iDiVTAcTaovDXCU-43">
          <mxGeometry x="2188" y="2614" width="6" height="8" as="geometry" />
        </mxCell>
        <mxCell id="uO-Jlbd7GYopMe2RQ06U-26" value="" style="rounded=0;whiteSpace=wrap;html=1;fillColor=#66B2FF;strokeColor=#6c8ebf;fontSize=1.5;direction=south;" vertex="1" parent="S4rw2iDiVTAcTaovDXCU-43">
          <mxGeometry x="2188" y="2622" width="6" height="8" as="geometry" />
        </mxCell>
        <mxCell id="uO-Jlbd7GYopMe2RQ06U-27" value="" style="rounded=0;whiteSpace=wrap;html=1;fillColor=#66B2FF;strokeColor=#6c8ebf;fontSize=1.5;direction=south;" vertex="1" parent="S4rw2iDiVTAcTaovDXCU-43">
          <mxGeometry x="2188" y="2630" width="6" height="8" as="geometry" />
        </mxCell>
        <mxCell id="uO-Jlbd7GYopMe2RQ06U-28" value="" style="rounded=0;whiteSpace=wrap;html=1;fillColor=#66B2FF;strokeColor=#6c8ebf;fontSize=1.5;direction=south;" vertex="1" parent="S4rw2iDiVTAcTaovDXCU-43">
          <mxGeometry x="2182" y="2582" width="6" height="8" as="geometry" />
        </mxCell>
        <mxCell id="uO-Jlbd7GYopMe2RQ06U-29" value="" style="rounded=0;whiteSpace=wrap;html=1;fillColor=#66B2FF;strokeColor=#6c8ebf;fontSize=1.5;direction=south;" vertex="1" parent="S4rw2iDiVTAcTaovDXCU-43">
          <mxGeometry x="2182" y="2590" width="6" height="8" as="geometry" />
        </mxCell>
        <mxCell id="uO-Jlbd7GYopMe2RQ06U-30" value="" style="rounded=0;whiteSpace=wrap;html=1;fillColor=#66B2FF;strokeColor=#6c8ebf;fontSize=1.5;direction=south;" vertex="1" parent="S4rw2iDiVTAcTaovDXCU-43">
          <mxGeometry x="2182" y="2598" width="6" height="8" as="geometry" />
        </mxCell>
        <mxCell id="uO-Jlbd7GYopMe2RQ06U-31" value="" style="rounded=0;whiteSpace=wrap;html=1;fillColor=#66B2FF;strokeColor=#6c8ebf;fontSize=1.5;direction=south;" vertex="1" parent="S4rw2iDiVTAcTaovDXCU-43">
          <mxGeometry x="2182" y="2606" width="6" height="8" as="geometry" />
        </mxCell>
        <mxCell id="uO-Jlbd7GYopMe2RQ06U-32" value="" style="rounded=0;whiteSpace=wrap;html=1;fillColor=#66B2FF;strokeColor=#6c8ebf;fontSize=1.5;direction=south;" vertex="1" parent="S4rw2iDiVTAcTaovDXCU-43">
          <mxGeometry x="2182" y="2614" width="6" height="8" as="geometry" />
        </mxCell>
        <mxCell id="uO-Jlbd7GYopMe2RQ06U-33" value="" style="rounded=0;whiteSpace=wrap;html=1;fillColor=#66B2FF;strokeColor=#6c8ebf;fontSize=1.5;direction=south;" vertex="1" parent="S4rw2iDiVTAcTaovDXCU-43">
          <mxGeometry x="2182" y="2622" width="6" height="8" as="geometry" />
        </mxCell>
        <mxCell id="uO-Jlbd7GYopMe2RQ06U-34" value="" style="rounded=0;whiteSpace=wrap;html=1;fillColor=#66B2FF;strokeColor=#6c8ebf;fontSize=1.5;direction=south;" vertex="1" parent="S4rw2iDiVTAcTaovDXCU-43">
          <mxGeometry x="2182" y="2630" width="6" height="8" as="geometry" />
        </mxCell>
        <mxCell id="uO-Jlbd7GYopMe2RQ06U-35" value="" style="rounded=0;whiteSpace=wrap;html=1;fillColor=#66B2FF;strokeColor=#6c8ebf;fontSize=1.5;direction=south;" vertex="1" parent="S4rw2iDiVTAcTaovDXCU-43">
          <mxGeometry x="2168" y="2582" width="6" height="8" as="geometry" />
        </mxCell>
        <mxCell id="uO-Jlbd7GYopMe2RQ06U-36" value="" style="rounded=0;whiteSpace=wrap;html=1;fillColor=#66B2FF;strokeColor=#6c8ebf;fontSize=1.5;direction=south;" vertex="1" parent="S4rw2iDiVTAcTaovDXCU-43">
          <mxGeometry x="2168" y="2590" width="6" height="8" as="geometry" />
        </mxCell>
        <mxCell id="uO-Jlbd7GYopMe2RQ06U-37" value="" style="rounded=0;whiteSpace=wrap;html=1;fillColor=#66B2FF;strokeColor=#6c8ebf;fontSize=1.5;direction=south;" vertex="1" parent="S4rw2iDiVTAcTaovDXCU-43">
          <mxGeometry x="2168" y="2598" width="6" height="8" as="geometry" />
        </mxCell>
        <mxCell id="uO-Jlbd7GYopMe2RQ06U-38" value="" style="rounded=0;whiteSpace=wrap;html=1;fillColor=#66B2FF;strokeColor=#6c8ebf;fontSize=1.5;direction=south;" vertex="1" parent="S4rw2iDiVTAcTaovDXCU-43">
          <mxGeometry x="2168" y="2606" width="6" height="8" as="geometry" />
        </mxCell>
        <mxCell id="uO-Jlbd7GYopMe2RQ06U-39" value="" style="rounded=0;whiteSpace=wrap;html=1;fillColor=#66B2FF;strokeColor=#6c8ebf;fontSize=1.5;direction=south;" vertex="1" parent="S4rw2iDiVTAcTaovDXCU-43">
          <mxGeometry x="2168" y="2614" width="6" height="8" as="geometry" />
        </mxCell>
        <mxCell id="uO-Jlbd7GYopMe2RQ06U-40" value="" style="rounded=0;whiteSpace=wrap;html=1;fillColor=#66B2FF;strokeColor=#6c8ebf;fontSize=1.5;direction=south;" vertex="1" parent="S4rw2iDiVTAcTaovDXCU-43">
          <mxGeometry x="2168" y="2622" width="6" height="8" as="geometry" />
        </mxCell>
        <mxCell id="uO-Jlbd7GYopMe2RQ06U-41" value="" style="rounded=0;whiteSpace=wrap;html=1;fillColor=#66B2FF;strokeColor=#6c8ebf;fontSize=1.5;direction=south;" vertex="1" parent="S4rw2iDiVTAcTaovDXCU-43">
          <mxGeometry x="2168" y="2630" width="6" height="8" as="geometry" />
        </mxCell>
        <mxCell id="uO-Jlbd7GYopMe2RQ06U-42" value="+MG=434.027" style="rounded=0;whiteSpace=wrap;html=1;fillColor=#66B2FF;strokeColor=#6c8ebf;fontSize=1.2;direction=south;textDirection=vertical-lr;" vertex="1" parent="S4rw2iDiVTAcTaovDXCU-43">
          <mxGeometry x="2168" y="2572" width="4" height="7" as="geometry" />
        </mxCell>
        <mxCell id="GzNEmD3VfXziyHX95NtM-3" value="Mesanin" parent="0" />
        <mxCell id="S4rw2iDiVTAcTaovDXCU-0" value="" style="shape=corner;whiteSpace=wrap;html=1;fillColor=#f8cecc;strokeColor=#b85450;direction=south;dx=20;dy=17;" parent="GzNEmD3VfXziyHX95NtM-3" vertex="1">
          <mxGeometry x="1780" y="2548" width="597" height="106" as="geometry" />
        </mxCell>
        <mxCell id="S4rw2iDiVTAcTaovDXCU-1" value="" style="shape=corner;whiteSpace=wrap;html=1;fillColor=#f8cecc;strokeColor=#b85450;direction=south;" parent="GzNEmD3VfXziyHX95NtM-3" vertex="1">
          <mxGeometry x="1528" y="2327" width="272" height="241" as="geometry" />
        </mxCell>
        <mxCell id="S4rw2iDiVTAcTaovDXCU-3" value="" style="rounded=0;whiteSpace=wrap;html=1;fillColor=#f8cecc;strokeColor=#b85450;" parent="GzNEmD3VfXziyHX95NtM-3" vertex="1">
          <mxGeometry x="1528" y="1827" width="22" height="500" as="geometry" />
        </mxCell>
        <mxCell id="S4rw2iDiVTAcTaovDXCU-6" value="" style="rounded=0;whiteSpace=wrap;html=1;fillColor=#f8cecc;strokeColor=#b85450;" parent="GzNEmD3VfXziyHX95NtM-3" vertex="1">
          <mxGeometry x="2360" y="2327" width="17" height="221" as="geometry" />
        </mxCell>
        <mxCell id="S4rw2iDiVTAcTaovDXCU-7" value="" style="rounded=0;whiteSpace=wrap;html=1;fillColor=#f8cecc;strokeColor=#b85450;" parent="GzNEmD3VfXziyHX95NtM-3" vertex="1">
          <mxGeometry x="2184" y="2504" width="70" height="44" as="geometry" />
        </mxCell>
        <mxCell id="S4rw2iDiVTAcTaovDXCU-8" value="" style="rounded=0;whiteSpace=wrap;html=1;fillColor=#f8cecc;strokeColor=#b85450;" parent="GzNEmD3VfXziyHX95NtM-3" vertex="1">
          <mxGeometry x="2122" y="2361" width="36" height="34" as="geometry" />
        </mxCell>
        <mxCell id="S4rw2iDiVTAcTaovDXCU-9" value="" style="rounded=0;whiteSpace=wrap;html=1;fillColor=#f8cecc;strokeColor=#b85450;" parent="GzNEmD3VfXziyHX95NtM-3" vertex="1">
          <mxGeometry x="2687" y="2420" width="15" height="251" as="geometry" />
        </mxCell>
        <mxCell id="S4rw2iDiVTAcTaovDXCU-10" value="" style="shape=corner;whiteSpace=wrap;html=1;fillColor=#f8cecc;strokeColor=#b85450;direction=west;dx=11;dy=10;" parent="GzNEmD3VfXziyHX95NtM-3" vertex="1">
          <mxGeometry x="2756" y="2590" width="112" height="187" as="geometry" />
        </mxCell>
        <mxCell id="S4rw2iDiVTAcTaovDXCU-11" value="" style="rounded=0;whiteSpace=wrap;html=1;fillColor=#f8cecc;strokeColor=#b85450;" parent="GzNEmD3VfXziyHX95NtM-3" vertex="1">
          <mxGeometry x="2889" y="2488" width="11" height="131" as="geometry" />
        </mxCell>
        <mxCell id="S4rw2iDiVTAcTaovDXCU-12" value="" style="rounded=0;whiteSpace=wrap;html=1;fillColor=#f8cecc;strokeColor=#b85450;direction=south;" parent="GzNEmD3VfXziyHX95NtM-3" vertex="1">
          <mxGeometry x="2702" y="2579" width="187" height="11.5" as="geometry" />
        </mxCell>
        <mxCell id="S4rw2iDiVTAcTaovDXCU-13" value="" style="rounded=0;whiteSpace=wrap;html=1;fillColor=#f8cecc;strokeColor=#b85450;direction=south;" parent="GzNEmD3VfXziyHX95NtM-3" vertex="1">
          <mxGeometry x="2431" y="2420" width="256" height="14" as="geometry" />
        </mxCell>
        <mxCell id="S4rw2iDiVTAcTaovDXCU-14" value="" style="rounded=0;whiteSpace=wrap;html=1;fillColor=#f8cecc;strokeColor=#b85450;" parent="GzNEmD3VfXziyHX95NtM-3" vertex="1">
          <mxGeometry x="2448" y="2404" width="12" height="16" as="geometry" />
        </mxCell>
        <mxCell id="S4rw2iDiVTAcTaovDXCU-15" value="" style="rounded=0;whiteSpace=wrap;html=1;fillColor=#f8cecc;strokeColor=#b85450;" parent="GzNEmD3VfXziyHX95NtM-3" vertex="1">
          <mxGeometry x="2438" y="2393" width="30" height="11" as="geometry" />
        </mxCell>
        <mxCell id="S4rw2iDiVTAcTaovDXCU-17" value="" style="rounded=0;whiteSpace=wrap;html=1;fillColor=#f8cecc;strokeColor=#b85450;" parent="GzNEmD3VfXziyHX95NtM-3" vertex="1">
          <mxGeometry x="2506" y="2374" width="13" height="46" as="geometry" />
        </mxCell>
        <mxCell id="S4rw2iDiVTAcTaovDXCU-18" value="" style="rounded=0;whiteSpace=wrap;html=1;fillColor=#f8cecc;strokeColor=#b85450;" parent="GzNEmD3VfXziyHX95NtM-3" vertex="1">
          <mxGeometry x="2519" y="2374" width="118" height="9" as="geometry" />
        </mxCell>
        <mxCell id="S4rw2iDiVTAcTaovDXCU-20" value="" style="rounded=0;whiteSpace=wrap;html=1;fillColor=#f8cecc;strokeColor=#b85450;direction=south;" parent="GzNEmD3VfXziyHX95NtM-3" vertex="1">
          <mxGeometry x="2668" y="2660" width="19" height="11" as="geometry" />
        </mxCell>
        <mxCell id="S4rw2iDiVTAcTaovDXCU-21" value="" style="rounded=0;whiteSpace=wrap;html=1;fillColor=#f8cecc;strokeColor=#b85450;direction=south;" parent="GzNEmD3VfXziyHX95NtM-3" vertex="1">
          <mxGeometry x="2847" y="2488" width="42" height="11.5" as="geometry" />
        </mxCell>
        <mxCell id="S4rw2iDiVTAcTaovDXCU-22" value="" style="rounded=0;whiteSpace=wrap;html=1;fillColor=#f8cecc;strokeColor=#b85450;direction=west;" parent="GzNEmD3VfXziyHX95NtM-3" vertex="1">
          <mxGeometry x="2847" y="2499.5" width="11.5" height="24.5" as="geometry" />
        </mxCell>
        <mxCell id="S4rw2iDiVTAcTaovDXCU-23" value="" style="rounded=0;whiteSpace=wrap;html=1;fillColor=#f8cecc;strokeColor=#b85450;" parent="GzNEmD3VfXziyHX95NtM-3" vertex="1">
          <mxGeometry x="2377" y="2327" width="139" height="14" as="geometry" />
        </mxCell>
        <mxCell id="S4rw2iDiVTAcTaovDXCU-24" value="" style="rounded=0;whiteSpace=wrap;html=1;fillColor=#f8cecc;strokeColor=#b85450;" parent="GzNEmD3VfXziyHX95NtM-3" vertex="1">
          <mxGeometry x="2217" y="2327" width="115" height="14" as="geometry" />
        </mxCell>
        <mxCell id="S4rw2iDiVTAcTaovDXCU-25" value="" style="rounded=0;whiteSpace=wrap;html=1;fillColor=#f8cecc;strokeColor=#b85450;direction=south;" parent="GzNEmD3VfXziyHX95NtM-3" vertex="1">
          <mxGeometry x="2443" y="2671" width="234" height="12" as="geometry" />
        </mxCell>
        <mxCell id="S4rw2iDiVTAcTaovDXCU-26" value="" style="rounded=0;whiteSpace=wrap;html=1;fillColor=#f8cecc;strokeColor=#b85450;direction=south;" parent="GzNEmD3VfXziyHX95NtM-3" vertex="1">
          <mxGeometry x="2613" y="2617" width="14" height="54" as="geometry" />
        </mxCell>
        <mxCell id="S4rw2iDiVTAcTaovDXCU-27" value="" style="rounded=0;whiteSpace=wrap;html=1;fillColor=#f8cecc;strokeColor=#b85450;direction=south;" parent="GzNEmD3VfXziyHX95NtM-3" vertex="1">
          <mxGeometry x="2496" y="2657" width="14" height="14" as="geometry" />
        </mxCell>
        <mxCell id="S4rw2iDiVTAcTaovDXCU-28" value="" style="rounded=0;whiteSpace=wrap;html=1;fillColor=#f8cecc;strokeColor=#b85450;direction=south;" parent="GzNEmD3VfXziyHX95NtM-3" vertex="1">
          <mxGeometry x="2452" y="2646" width="131" height="11" as="geometry" />
        </mxCell>
        <mxCell id="S4rw2iDiVTAcTaovDXCU-29" value="" style="rounded=0;whiteSpace=wrap;html=1;fillColor=#f8cecc;strokeColor=#b85450;direction=south;" parent="GzNEmD3VfXziyHX95NtM-3" vertex="1">
          <mxGeometry x="2569" y="2657" width="14" height="14" as="geometry" />
        </mxCell>
        <mxCell id="S4rw2iDiVTAcTaovDXCU-128" value="" style="triangle;whiteSpace=wrap;html=1;fillColor=#f8cecc;strokeColor=#b85450;direction=south;" parent="GzNEmD3VfXziyHX95NtM-3" vertex="1">
          <mxGeometry x="2462" y="2434" width="22" height="8" as="geometry" />
        </mxCell>
        <mxCell id="S4rw2iDiVTAcTaovDXCU-42" value="Mesanin skap" parent="0" />
        <object label="Andre etasje" id="S4rw2iDiVTAcTaovDXCU-4">
          <mxCell parent="0" visible="0" />
        </object>
        <object label="Andre etasje skap" id="S4rw2iDiVTAcTaovDXCU-45">
          <mxCell parent="0" visible="0" />
        </object>
        <mxCell id="GzNEmD3VfXziyHX95NtM-6" value="Tak" parent="0" visible="0" />
        <mxCell id="S4rw2iDiVTAcTaovDXCU-46" value="Tak skap" parent="0" visible="0" />
        <mxCell id="h_ZqSWhydHnjJ5OdPfgj-39" value="Områder" parent="0" visible="0" />
        <mxCell id="h_ZqSWhydHnjJ5OdPfgj-40" value="" style="verticalLabelPosition=bottom;verticalAlign=top;html=1;shape=mxgraph.basic.rect;fillColor2=none;strokeWidth=1;size=20;indent=5;fillColor=#f8cecc;strokeColor=#b85450;" parent="h_ZqSWhydHnjJ5OdPfgj-39" vertex="1">
          <mxGeometry x="1800" y="2327" width="1100" height="450" as="geometry" />
        </mxCell>
        <mxCell id="h_ZqSWhydHnjJ5OdPfgj-41" value="M" style="verticalLabelPosition=middle;verticalAlign=middle;html=1;shape=mxgraph.basic.rect;fillColor2=none;strokeWidth=1;size=20;indent=5;fillColor=#f8cecc;strokeColor=#b85450;labelPosition=center;align=center;fontSize=82;" parent="h_ZqSWhydHnjJ5OdPfgj-39" vertex="1">
          <mxGeometry x="1550" y="1827" width="1350" height="500" as="geometry" />
        </mxCell>
        <mxCell id="h_ZqSWhydHnjJ5OdPfgj-42" value="R" style="verticalLabelPosition=middle;verticalAlign=middle;html=1;shape=mxgraph.basic.rect;fillColor2=none;strokeWidth=1;size=20;indent=5;fillColor=#7EA6E0;fontSize=102;labelPosition=center;align=center;" parent="h_ZqSWhydHnjJ5OdPfgj-39" vertex="1">
          <mxGeometry x="2900" y="2077" width="450" height="300" as="geometry" />
        </mxCell>
        <mxCell id="h_ZqSWhydHnjJ5OdPfgj-43" value="K" style="verticalLabelPosition=middle;verticalAlign=middle;html=1;shape=mxgraph.basic.rect;fillColor2=none;strokeWidth=1;size=20;indent=5;fillColor=#e1d5e7;strokeColor=#9673a6;fontSize=80;labelPosition=center;align=center;" parent="h_ZqSWhydHnjJ5OdPfgj-39" vertex="1">
          <mxGeometry x="3650" y="1827" width="450" height="450" as="geometry" />
        </mxCell>
        <mxCell id="h_ZqSWhydHnjJ5OdPfgj-44" value="" style="verticalLabelPosition=bottom;verticalAlign=top;html=1;shape=mxgraph.basic.rect;fillColor2=none;strokeWidth=1;size=20;indent=5;fillColor=#fff2cc;strokeColor=#d6b656;" parent="h_ZqSWhydHnjJ5OdPfgj-39" vertex="1">
          <mxGeometry x="4100" y="1827" width="50" height="150" as="geometry" />
        </mxCell>
        <mxCell id="h_ZqSWhydHnjJ5OdPfgj-45" value="P" style="verticalLabelPosition=middle;verticalAlign=middle;html=1;shape=mxgraph.basic.rect;fillColor2=none;strokeWidth=1;size=20;indent=5;fillColor=#fff2cc;strokeColor=#d6b656;labelPosition=center;align=center;fontSize=28;" parent="h_ZqSWhydHnjJ5OdPfgj-39" vertex="1">
          <mxGeometry x="4150" y="1727" width="100" height="250" as="geometry" />
        </mxCell>
        <mxCell id="h_ZqSWhydHnjJ5OdPfgj-46" value="I" style="verticalLabelPosition=middle;verticalAlign=middle;html=1;shape=mxgraph.basic.rect;fillColor2=none;strokeWidth=1;size=20;indent=5;fillColor=#9AC7BF;fontColor=#333333;strokeColor=#666666;labelPosition=center;align=center;fontSize=72;" parent="h_ZqSWhydHnjJ5OdPfgj-39" vertex="1">
          <mxGeometry x="3150" y="977" width="450" height="250" as="geometry" />
        </mxCell>
        <mxCell id="h_ZqSWhydHnjJ5OdPfgj-47" value="" style="verticalLabelPosition=bottom;verticalAlign=top;html=1;shape=mxgraph.basic.rect;fillColor2=none;strokeWidth=1;size=20;indent=5;" parent="h_ZqSWhydHnjJ5OdPfgj-39" vertex="1">
          <mxGeometry x="3600" y="977" width="50" height="50" as="geometry" />
        </mxCell>
        <mxCell id="h_ZqSWhydHnjJ5OdPfgj-48" value="" style="verticalLabelPosition=bottom;verticalAlign=top;html=1;shape=mxgraph.basic.rect;fillColor2=none;strokeWidth=1;size=20;indent=5;fillColor=#d5e8d4;strokeColor=#82b366;" parent="h_ZqSWhydHnjJ5OdPfgj-39" vertex="1">
          <mxGeometry x="2900" y="1077" width="250" height="150" as="geometry" />
        </mxCell>
        <mxCell id="h_ZqSWhydHnjJ5OdPfgj-49" value="V" style="verticalLabelPosition=middle;verticalAlign=middle;html=1;shape=mxgraph.basic.rect;fillColor2=none;strokeWidth=1;size=14.86;indent=5;fillColor=#d5e8d4;strokeColor=#82b366;fontSize=49;labelPosition=center;align=center;" parent="h_ZqSWhydHnjJ5OdPfgj-39" vertex="1">
          <mxGeometry x="1600" y="827" width="1550" height="250" as="geometry" />
        </mxCell>
        <mxCell id="h_ZqSWhydHnjJ5OdPfgj-50" value="S" style="verticalLabelPosition=middle;verticalAlign=middle;html=1;shape=mxgraph.basic.rect;fillColor2=none;strokeWidth=1;size=14.86;indent=5;labelPosition=center;align=center;fontSize=62;fillColor=#ffe6cc;strokeColor=#d79b00;" parent="h_ZqSWhydHnjJ5OdPfgj-39" vertex="1">
          <mxGeometry x="750" y="1677" width="2200" height="150" as="geometry" />
        </mxCell>
        <mxCell id="h_ZqSWhydHnjJ5OdPfgj-51" value="" style="verticalLabelPosition=bottom;verticalAlign=top;html=1;shape=mxgraph.basic.rect;fillColor2=none;strokeWidth=1;size=20;indent=5;" parent="h_ZqSWhydHnjJ5OdPfgj-39" vertex="1">
          <mxGeometry x="2950" y="1727" width="1200" height="50" as="geometry" />
        </mxCell>
        <mxCell id="h_ZqSWhydHnjJ5OdPfgj-52" value="" style="verticalLabelPosition=bottom;verticalAlign=top;html=1;shape=mxgraph.basic.rect;fillColor2=none;strokeWidth=1;size=20;indent=5;fillColor=#e1d5e7;strokeColor=#9673a6;" parent="h_ZqSWhydHnjJ5OdPfgj-39" vertex="1">
          <mxGeometry x="3950" y="1777" width="50" height="50" as="geometry" />
        </mxCell>
        <mxCell id="h_ZqSWhydHnjJ5OdPfgj-53" value="" style="verticalLabelPosition=bottom;verticalAlign=top;html=1;shape=mxgraph.basic.rect;fillColor2=none;strokeWidth=1;size=20;indent=5;" parent="h_ZqSWhydHnjJ5OdPfgj-39" vertex="1">
          <mxGeometry x="3700" y="1027" width="50" height="700" as="geometry" />
        </mxCell>
        <mxCell id="h_ZqSWhydHnjJ5OdPfgj-54" value="" style="verticalLabelPosition=bottom;verticalAlign=top;html=1;shape=mxgraph.basic.rect;fillColor2=none;strokeWidth=1;size=20;indent=5;" parent="h_ZqSWhydHnjJ5OdPfgj-39" vertex="1">
          <mxGeometry x="3600" y="1027" width="100" height="50" as="geometry" />
        </mxCell>
        <mxCell id="h_ZqSWhydHnjJ5OdPfgj-55" value="L" style="verticalLabelPosition=middle;verticalAlign=middle;html=1;shape=mxgraph.basic.rect;fillColor2=none;strokeWidth=1;size=20;indent=5;fillColor=light-dark(#ffff99, #ededed);fontSize=142;labelPosition=center;align=center;" parent="h_ZqSWhydHnjJ5OdPfgj-39" vertex="1">
          <mxGeometry x="800" y="1827" width="750" height="1000" as="geometry" />
        </mxCell>
        <mxCell id="h_ZqSWhydHnjJ5OdPfgj-56" value="" style="verticalLabelPosition=bottom;verticalAlign=top;html=1;shape=mxgraph.basic.rect;fillColor2=none;strokeWidth=1;size=20;indent=5;fillColor=#FFFF99;" parent="h_ZqSWhydHnjJ5OdPfgj-39" vertex="1">
          <mxGeometry x="1500" y="2327" width="300" height="600" as="geometry" />
        </mxCell>
        <mxCell id="h_ZqSWhydHnjJ5OdPfgj-57" value="" style="verticalLabelPosition=bottom;verticalAlign=top;html=1;shape=mxgraph.basic.rect;fillColor2=none;strokeWidth=1;size=20;indent=5;fillColor=light-dark(#ffff99, #ededed);" parent="h_ZqSWhydHnjJ5OdPfgj-39" vertex="1">
          <mxGeometry x="750" y="2477" width="50" height="350" as="geometry" />
        </mxCell>
        <mxCell id="h_ZqSWhydHnjJ5OdPfgj-58" value="" style="verticalLabelPosition=bottom;verticalAlign=top;html=1;shape=mxgraph.basic.rect;fillColor2=none;strokeWidth=1;size=20;indent=5;fillColor=light-dark(#ffff99, #ededed);" parent="h_ZqSWhydHnjJ5OdPfgj-39" vertex="1">
          <mxGeometry x="700" y="2777" width="50" height="50" as="geometry" />
        </mxCell>
        <mxCell id="h_ZqSWhydHnjJ5OdPfgj-59" value="" style="verticalLabelPosition=bottom;verticalAlign=top;html=1;shape=mxgraph.basic.rect;fillColor2=none;strokeWidth=1;size=14.86;indent=5;fillColor=light-dark(#ff99cc, #ededed);" parent="h_ZqSWhydHnjJ5OdPfgj-39" vertex="1">
          <mxGeometry x="50" y="1677" width="700" height="150" as="geometry" />
        </mxCell>
        <mxCell id="h_ZqSWhydHnjJ5OdPfgj-60" value="H" style="verticalLabelPosition=middle;verticalAlign=middle;html=1;shape=mxgraph.basic.rect;fillColor2=none;strokeWidth=1;size=14.86;indent=5;fillColor=light-dark(#FF99CC,#FF99CC);labelPosition=center;align=center;fontSize=92;" parent="h_ZqSWhydHnjJ5OdPfgj-39" vertex="1">
          <mxGeometry y="1827" width="800" height="700" as="geometry" />
        </mxCell>
        <mxCell id="h_ZqSWhydHnjJ5OdPfgj-61" value="" style="verticalLabelPosition=bottom;verticalAlign=top;html=1;shape=mxgraph.basic.rect;fillColor2=none;strokeWidth=1;size=14.86;indent=5;fillColor=light-dark(#ff99cc, #ededed);" parent="h_ZqSWhydHnjJ5OdPfgj-39" vertex="1">
          <mxGeometry x="200" y="2527" width="550" height="250" as="geometry" />
        </mxCell>
        <mxCell id="h_ZqSWhydHnjJ5OdPfgj-62" value="" style="verticalLabelPosition=bottom;verticalAlign=top;html=1;shape=mxgraph.basic.rect;fillColor2=none;strokeWidth=1;size=20;indent=5;" parent="h_ZqSWhydHnjJ5OdPfgj-39" vertex="1">
          <mxGeometry x="2900" y="2927" width="50" height="50" as="geometry" />
        </mxCell>
        <mxCell id="h_ZqSWhydHnjJ5OdPfgj-63" value="" style="verticalLabelPosition=bottom;verticalAlign=top;html=1;shape=mxgraph.basic.rect;fillColor2=none;strokeWidth=1;size=20;indent=5;" parent="h_ZqSWhydHnjJ5OdPfgj-39" vertex="1">
          <mxGeometry x="980" y="2987" width="100" height="100" as="geometry" />
        </mxCell>
        <mxCell id="h_ZqSWhydHnjJ5OdPfgj-64" value="" style="ellipse;whiteSpace=wrap;html=1;aspect=fixed;" parent="h_ZqSWhydHnjJ5OdPfgj-39" vertex="1">
          <mxGeometry x="830" y="2992" width="105" height="105" as="geometry" />
        </mxCell>
        <mxCell id="h_ZqSWhydHnjJ5OdPfgj-65" value="" style="ellipse;whiteSpace=wrap;html=1;aspect=fixed;" parent="h_ZqSWhydHnjJ5OdPfgj-39" vertex="1">
          <mxGeometry x="630" y="2957" width="145" height="145" as="geometry" />
        </mxCell>
        <mxCell id="h_ZqSWhydHnjJ5OdPfgj-66" value="" style="ellipse;whiteSpace=wrap;html=1;aspect=fixed;" parent="h_ZqSWhydHnjJ5OdPfgj-39" vertex="1">
          <mxGeometry x="395" y="2902" width="200" height="200" as="geometry" />
        </mxCell>
        <mxCell id="h_ZqSWhydHnjJ5OdPfgj-67" value="" style="ellipse;whiteSpace=wrap;html=1;aspect=fixed;" parent="h_ZqSWhydHnjJ5OdPfgj-39" vertex="1">
          <mxGeometry x="155" y="2902" width="200" height="200" as="geometry" />
        </mxCell>
      </root>
    </mxGraphModel>
  </diagram>
</mxfile>
